<?xml version="1.0" encoding="utf-8"?>
<!-- Generator: Adobe Illustrator 18.1.1, SVG Export Plug-In . SVG Version: 6.00 Build 0)  -->
<svg version="1.1" id="Layer_1" xmlns="http://www.w3.org/2000/svg" xmlns:xlink="http://www.w3.org/1999/xlink" x="0px" y="0px"
	 viewBox="0 0 87.6 87.4" enable-background="new 0 0 87.6 87.4" xml:space="preserve">
<path fill="#FFFFFF" d="M27.8,58.7V28h30.7v8H35.8v14.7h22.7v8H27.8z"/>
<path fill-rule="evenodd" clip-rule="evenodd" fill="#FFFFFF" d="M87.1,47.8c0.8-2.4,0.7-6.9-0.5-8.7c-2.2,0-4.2-0.3-5.3-1.4
	c-1.2-5.9,2.3-3.3,4.3-7.2c-0.9-2.5-2.1-4.7-2.9-7.2c-2.4-0.2-3.4,1.1-5.8,1c-1.3-1.1-2.3-2.6-2.9-4.3c1.5-0.8,1.5-3,2.9-3.9
	c-1.3-2.5-3.3-4.5-5.8-5.8c-2,0.6-2.7,2.5-4.8,2.9c-0.7-1.1-2.4-1.1-2.9-2.4c0.6-1.7,1.1-3.5,1-5.8c-2.7-0.8-4.7-2.4-7.7-2.9
	c-1.4,1.2-1.8,3.3-3.4,4.4c-2.1,0.2-3.5-0.4-4.8-1c0.2-2.3-1-3.2-1-5.3h-7.7c-0.6,1.8-0.8,4.1-1.4,5.8c-1.8-0.3-2.1,0.8-3.9,0.5
	c-1.8-0.9-1.7-3.7-3.9-4.4c-2.6,0.5-4.4,1.7-6.8,2.4c0.1,2.1,1,3.5,1,5.8c-1.3,1.1-2.7,2.1-4.3,2.9c-1.3-1.1-3.2-1.6-4.4-2.9
	c-3,1.3-4.5,4.2-6.3,6.8c1.4,1,2,2.8,2.9,4.4c-0.9,0.5-1,1.9-1.9,2.4c-2.4,0.2-3.4-1.1-5.8-1c-0.6,2.9-2.7,4.4-2.9,7.7
	c1.2,1.3,3,2.1,4.3,3.4c-0.4,1.5-0.3,3.6-1,4.8c-1.9,0.2-3.8,0.4-5.3,1c-0.3,3.3,0.1,4.5,0,8.2c1.5,1.1,4.7,0.4,5.8,1.9
	c-0.4,1.5,0.5,1.8,0.5,2.9c-1.8,0.8-3,2.1-4.8,2.9c0.4,3.3,2,5.4,2.9,8.2c1.6-0.5,3.5-0.6,5.3-1c1.3,0.9,2.3,2.2,2.9,3.9
	c-1,1.6-2.5,2.6-2.9,4.8c1.8,1.9,3.2,4.2,5.8,5.3c1.8-0.6,3-1.8,4.8-2.4c1.2,0.5,2.3,1.2,2.9,2.4c-0.9,1.4-0.8,3.7-1.4,5.3
	c3,0.9,5.1,2.6,8.2,3.4c1.6-1.3,2-3.8,3.9-4.8c0.9,1,3.6,0.3,4.3,1.4c0.2,1.9,0.4,3.8,1,5.3c3.6-0.2,4.8,0,8.7,0
	c0.7-2.7,0-6.8,3.9-6.3c1.5,1.2,1.8,3.6,3.4,4.8c2.6-1.4,6.6-1.5,8.7-3.4c0.1-2.3-0.6-3.9-1-5.8c1.5-0.6,2.5-1.6,3.9-2.4
	c1.4,1.4,2.9,2.5,4.8,3.4c1.4-2.5,4.3-3.4,5.3-6.3c-0.8-1.6-2.2-2.6-2.9-4.4c1.1-1,1.2-3,2.9-3.4c2.1,0,3.1,1.1,5.3,1
	c1.3-2.6,2.6-5.1,3.4-8.2c-1.7-1-3.6-1.9-4.8-3.4c0.8-1,0.3-3.2,1-4.3C84.1,48.1,84,47.2,87.1,47.8z M49.4,71.5
	C32.2,71.9,19.9,64.6,17,49.3h11.5c-0.1-0.2-0.1-0.5-0.2-0.7c-0.6-3.3-0.1-6.6,0.3-9.9H16.5c1.2-1.5-0.7-2,0-2.4
	c4.6-11.7,14.8-21.5,30.9-19.8C58,17.5,63,24.3,68.7,30.9C76.2,50.3,64.7,67.3,49.4,71.5z"/>
</svg>
