<?xml version="1.0" encoding="utf-8"?>
<!-- Generator: Adobe Illustrator 18.1.1, SVG Export Plug-In . SVG Version: 6.00 Build 0)  -->
<svg version="1.1" xmlns="http://www.w3.org/2000/svg" xmlns:xlink="http://www.w3.org/1999/xlink" x="0px" y="0px"
	 viewBox="0 0 325.8 217" enable-background="new 0 0 325.8 217" xml:space="preserve">
<g id="_x31_st_try" display="none">
	<g display="inline">
		<path fill="#00AEEF" stroke="#00AEEF" d="M4.6-10.3c0-0.1,0-0.1,0.1-0.2c-1.2,0-2.5,0.3-3.7,0.7c0,0,0.1,0,0.2,0.1
			C2-9.8,3.2-10,4.6-10.3z"/>
		<path fill="#00AEEF" d="M368.9,165.6l2.5-1.9v-11c-4.2-3.2,0.4-6.6-0.4-11.9c2.2,2.5-3.9-0.5-2.2-0.2l-2.2-8.3
			c-0.3-2.1,5.3-0.5,3.6-3.5c-1.8,0.2-2.9-1.2-4.3-2.1c0.8-0.8-1.7-8.7,4.9-9.6c2.6-0.9-8.6,3.4-6.3,1.1c-0.1-3.9-2.3-4-2.4-7.9
			l0.9-0.1c1-2.6,7.2-7.5,3.5-4.8c-0.2,1.8,4-0.7,2,2c-3.8-1.8-4.9-6.3-5-10.2c1.1,1.3,2.8,1.2,4.7,1.7c-5-5-6.7-10.3-8.8-15.9
			c-0.9-0.4-1.4-0.7-0.2-0.6c0.1,0.2,0.2,0.4,0.2,0.6c1.3,0.6,3.7,1.4,4,2c3.7-7.2-5.7-14.7-0.4-20.7c-1.1,0.3-3.8,0-3.2,0
			c0.4-3.6,4.9-3.4,3.3-5.8c2.7-0.2-0.9-2.9-1.7-5.4c-1.4-0.9-0.1-0.8,0.8,0.1c-2.3-4.7-5.2-16.2-1.7-23.1c-1.8,0.2-6.5-4.8-6.3-6.5
			l4.1,0.7c0.8-0.5,1-1.3,1.1-2.1c-0.3-0.4-0.3-0.7,0.1-0.8c0-1,0-2,0.5-2.7c0-0.1,0-0.3,0-0.4c-1.2-2.5-2.7-4.9,0-7.3
			c-0.7,1,5.7,2.9,5.4,0c-0.7-5.1-2-1.4-3.4-5.6l-1.7-2.6c-3.8-0.2,0.1-4.1-3.4-2.9c2.1-1.3-2.2-7.2,4.1-6.7l5.3,0.7
			c-0.4-2-4.8-3.4-7.3-5c-1,0-2-0.1-3-0.4c0.7-0.4,1.7-0.7,2.2-1.2c-0.8-0.4-1.1-0.9-1-1.5c-2.1-0.6-3.1,0.6-5.5,1.5
			c0.4-0.6-2-1.7-4.7-3.1c-2.8,0-5.6,0-8.4,0c-0.6,1.6-0.1,3.3-0.4,4.5c-4.1-6.2-12.8,4-18-1.6c1.6-0.9,6.6-3,2.8-4.6
			c-0.3-0.5-0.7-0.9-1-1.2c-2,0.4-3.9,0.9-4.9,1.8c0,0.1-0.1,0.1-0.2,0.1c0,0,0.1-0.1,0.2-0.1c0-0.2-0.3-0.6-0.7-1
			c-2.4,1.5-5.1,3.4-8.4,1.9l1.6,5.1c-3-3.2-9.8,3-9.1-2.2c-2.2,1.8-7.9-1.7-7.1,3.3c-11-4.2-26.7,2.6-33.4-6.4
			c-1.6,0.8-5.5,0-4.7,2.6c2.6,2.8,3.6-2,4.6-0.1c-1.4,0.2-1.7,1.5-1.9,2.2c-2.9-1-5.3-1.4-3.9-4.2c-2.2,0.1-4.3,0.3-6.2,0.6
			c-2.4,2.4-4.9,5.6-10.3,4.5c0.4-2.1-0.3-2.9-3.1-2.5l-5.4,3.5c-4.6-0.6-4.4-2.8-4-5.4c-0.5,0.1-1.1,0.2-1.6,0.3
			c-1.2-0.5-1.2-1.6-1.4-2.7c-1.6,0.2-3.1,0.5-4.3,1.2l0.3,2l-0.9,0.1l0.1-1.7c-0.3,0.3-0.6,0.6-0.9,1l-2.1-2.3
			c-2.7,1-6.6,1.1-6.8,2.9c0.8,0.3,1.6,0.5,2.3,0.7c-0.5,0.5-1.1,0.7-1.7,1c0.1,0.2,0.2,0.4,0.4,0.6c-0.5-0.1-1-0.1-1.5-0.2
			c-1.2,0.3-2.5,0.7-3.7,1.7c0.8-3.4-5.4-2.4-8.1-2.8c-3-0.7-3.4,3.1-4.3,3c-0.1-1.8-5-0.3-2.6-2.8c1-0.6,2.4,1.7,4.1,0.2
			c-0.3-0.2-0.6-0.5-0.8-0.7c-1.6,0.1-3.1,0.3-4.1,0.7c1.1-0.7,0.9-1.8,0.6-2.8c-0.5,0.1-1,0.3-1.6,0.7c-3.1,1.7,0.8,6.8-5.1,4.6
			c1.6-0.9,1.8-2.2,3.1-3.5l-5.6-1.8l-0.2,3.1c-0.8-0.8-0.2-1.1-0.6-1.5c-1.7,3.3-8.5,1-9.8,4.7c-2.8,0.3-5.9-2.2-8.6-2.5l0.5-0.3
			c-3.3-1.8-7.6-0.6-10.4,1.5l0.1-0.7c-0.4-0.1-1-0.1-1.7,0l-1.3,1.1c-0.8,0.1-1.2-0.3-1.4-0.7c-1.4,0.3-2.9,0.9-3.9,1.7
			c-0.5-0.2-0.8-0.6-1.2-1c-0.2,0.2-0.4,0.4-0.7,0.6c-0.8-0.5-7.3,0.6-10.6-1.5c0,0.7,0.2,1.3,0.6,1.7c-6.1-1.6-12.7-3.8-18.9-4.3
			c-2.7,0.9-6,1.3-9,1.3c0.8-0.4,1.1-0.9,1.4-1.4c-0.3,0.3-0.8,0.6-1.6,0.8c-1.2-0.1-2.4-0.2-3.6-0.2c-4.6,1.8-9.4,2.8-14.4,3.9
			c-0.5,0.7-0.9,1.1-0.8,0.2c0.3-0.1,0.6-0.1,0.8-0.2c0.7-1,1.8-2.9,2.6-3.1c-0.2-0.1-0.4-0.1-0.6-0.2c-3.4,0.2-6.7,0.4-9.8,0.1
			c-5.8,1.1-11.4,3-16.2,0.4c0.4,0.9,0,3,0,2.5c-3-0.2-4-1.8-5.1-2.5c-0.8,0-1.5,0-2.2-0.1c0,0,0,0,0,0c0,0,0,0,0,0
			c-0.9-0.1-1.8-0.1-2.7-0.2c-1.2,0.5-2.8,1.3-4.2,1.6c-1.1,1.1-1,0.1,0.1-0.6c-6.1,1.8-20.8,4-29.7,1.3c0.2,1.4-6.1,5-8.4,4.9
			l0.9-3.2C7.6-9.1,6.7-9.3,5.6-9.3C5-9.1,4.6-9.1,4.5-9.4c-1.3,0-2.6,0-3.4-0.4c-0.2,0-0.3,0-0.5,0c-3.2,0.9-6.3,2.1-9.4,0
			c1.3,0.5,3.7-4.5,0-4.2c-6.5,0.6-1.9,1.5-7.2,2.6l-3.3,1.3c-0.2,3-5.3-0.1-3.7,2.6c-1.6-1.6-8.7,1.4-8.6-2.7
			c-1.7,0.3-3.3,0.5-5,0.7C-36.7-9.3-36.9-9.2-37-9c0,0.8-0.1,1.5-0.5,2.4C-38-7.2-38.3-8-39.1-8.4c-0.3,0.3-0.6,0.5-0.9,0.7
			c2.2,0.7,3.9,1.7,3.7,4.3c-3,1.7-0.9-4.7-4.8-3.9c-0.5,1.5,0.9,2.3,2,4.1c-0.4-0.2-1.2,0.5-2.1,1.5c0.7,1.1,1.3,2.1,0.8,3.2
			c2-3,7.3-0.5,8.3,1.5c-2.5,3.2-5-2.1-5.5,2.5c3,0.8,5.3,5,7.4,1.3c6.9,1.7-1.9,4.8,3.4,7.3c-4.2,1.3-9.4-3.1-12.4-1.2
			c0.3,0.5,0.5,1.1,0.8,1.7c3.3,1.1,5.4,10.1,11.2,7.9c-1.3,2-5,2.2-7.9,0.7c-2.9,2.8,8.5,6.8-0.7,7.8l4.8,1
			c-1.6,0.9-2.7,2.1-5.3,3.6c-0.1,2.5,6.5,8-0.7,7.8c0.4,0.4,0.5,2.4,1.4,3.7c0.2,0,0.3,0,0.5,0c-0.1,0.1-0.1,0.3-0.2,0.4
			c0.7,0.8,1.8,1.1,3.8,0.3c3-3.5-3.6-4.1,3.1-6c-5.5,2.5,0.7,5.1,2.6,7.1l-2.8,0.3c1,1.1,0.6,3.3,2.5,4.4c-1.3-0.3-2.6,0.1-3.2,0.9
			l4.2,1.3c2.1,4.9-7.5,1.2-6.2,6l-3.3-3.6c0.7,0.8-3.3,2.4-1.9,4.7c3.9,0.9,8.5,2.6,11.5,3.3c1.5,2.5-3.3,1.4-1.2,3.3l0.8,0.6
			c-0.3-0.2-0.6-0.4-0.8-0.6l-3.9-2.9c-1.3-0.5-6.4,2.3-6.3,6c1.3,2.3,6.9,5.9,9,2.2c0.1,1.8-2.3,4.3-5.1,2.9c1.3,4.1,4.2-0.5,6.6,3
			c-2.6,1.4-6.3,6-10,8.7l0,0c0,0.4-0.1,0.8-0.3,1.2c-2.7-0.3-3.7,0.2-3.3,2.4l2.9,2.6c2.1,1.2,4.3,2.2,7.1,1.7
			c2.2,6.7-19.4,4.2-6.9,11.2c1.6-0.9,5.6,0.9,6.3-0.2c-0.4-0.5-0.6-1.1-0.4-1.9c0.5,1,0.6,1.5,0.4,1.9c1.6,2,7,1.9,4.3,5.9
			c-3.3-3.6-8.1,3.9-12.9-1.4c2.7,0.3,2-2.9,1.3-3.8c-2.1,1.2-5,0.6-6.7,1.4c0.3,1,0.2,2.3,0.8,2.9l-1.1-1.2c-0.5,0.1-0.8,0.5-1,0.9
			c0.4,1.3,0.6,2.8,1.3,3.9c2.4-0.7,3.5-3.4,4.2-5c1.5,1,1.6,2.5,2.6,3.9c0.3,0.1,0.6,0.2,1,0.3c1.6,5.2-5.4,6.1,2.8,8.2
			c-0.7-3.3,4.1-4.1,7.2-4l1.9,3.8l-3-0.7c-2.2,6.1,5.5,1.8,4.7,7.7l-6,2.8c-5.2-1.4,2.3-8.6-6.1-7.6c-0.3,3.9,3.9,5.1,1.8,8.8
			c-0.7-0.8-0.9-1.9-1.7-2.7c0,0.2-0.3,0.4-0.8,0.6c-0.1,0.3-0.3,0.7-0.5,1.1c-0.2-0.2-0.5-0.4-0.7-0.6c-1.5,0.6-3.5,1.4-4.4,2.6
			l2.4,0.1c-1,0.6-1.4,0.2-1.9,0.4c2.8,0.8,2.5,3.4,3.3,5.4c1,0.1,1.9-0.7,3.9-0.7c1,6.2,4.2,8,4.7,12c-6.2-0.8-0.6,7.1-6.9,2.6
			c2.7-1.5,3.2-6.7,0.9-10.3c-0.7,1.8-2.7,3.6-3,5.2l-0.4-0.4c-2.4,2.6-0.8,5.9,1.9,8.1l-0.9-0.1c-0.3,1.4,0.3,4.7,2.7,6.4
			c-0.4,0.5-1,0.8-1.6,1.1c0.9,1.7,1.6,3.6,1.7,5.1l-2.9-4.7c-4.5,1.3-11.3,0.5-7.3,3.5c0.1,3.6,7.4,5.6,10,4.2
			c-0.4,1-0.6,2.1-0.7,3.2c1.9-0.9,3.9-1.1,5.5-0.2c-0.5,2.1-3.2-0.1-4.7,0.8c1.8,1.2,0.6,2.2-0.6,3.1c0.7,4.4,2.1,8.9-2,12.8
			c1.6,0.9,2.7,0.3,3.6,2.3c-1.6,9.4,4.8,19.9-3.1,27.4c-1.7-2.7-4-0.2-6.3-0.1c3.6,2.3-3.7,2.7,2.4,3.5c3.6-0.2,5.4,0,6.9-2.7
			c2,5.6,2,14.2-1.4,17.3c1.7-1.6,2.8-0.3,3.9,0.9c-5.8-0.4-6.7,3.7-4.6,6.9l3.5,0.4l-3.6,2c1.1,1.2,7.4,1.3,4,4.4
			c-1.4,0.2-2.8,0.3-3.8,0.9c2.9,3.2,7.8,7.8,4.8,11.3l-5.2,2.9c0.6,1.5,3.7,4,5.2,1.4c-3.1,6-3.5,21.2-8,23.2
			c7.4,7,10,16.2,10.6,25.2c1.5-2.8,1.7-6.4,7-6.1c2.2,2.4-6.5,0.6-5,3.9c3.8,3.3,7.7-1.8,11.1-0.7c-3.8-1.5-0.6-5.7,1.9-6.4
			c4.1,1.9-2.7,3.9,3.2,4.3c1-2.4,6.4-4.1,1.7-5.8c2.1-5.4,6.1,1.5,9.3-2.7c1.9,3.8-6.1,8.7,0.4,10.6c-1-3.6,8-4.9,4.6-10.3
			c2.5,1,2.8,3.9,1,6.1c3.6,2.2,8.8-6.6,10,0.6l1.2-3.7c1.1,1.2,2.8,2.1,4.6,4.1c3.2,0.1,10.3-5,10,0.6c1-0.6,8.3-0.3,5.5-4.2
			c-4.5-2.4-5.2,2.8-7.7-2.4c3.2,4.3,6.5-0.6,9.1-2l0.4,2.2c1.4-0.7,4.3-0.5,5.6-2c-0.4,1,0.2,2.1,1.2,2.5l1.6-3.3
			c6.3-1.7,1.5,5.8,7.6,4.8l-4.7,2.6c1-0.6,3.1,2.5,6.1,1.5c1.1-3,3.3-6.6,4.3-9c3.2-1.2,1.9,2.6,4.2,0.9l0.8-0.6
			c-0.3,0.3-0.5,0.5-0.8,0.6l-3.7,3c-0.7,1,3,5,7.6,4.9c3-1,7.6-5.4,2.9-7c2.3-0.1,5.6,1.8,3.7,4c5.3-1-0.7-3.2,3.8-5.1
			c1.9,2,7.7,4.9,11.1,7.8l-4.7,5l3.1,0c-3.2,3.2-0.1,3.3,0.3,5.2c2-0.1,3.9-0.2,6-0.3c-5.2-6.4,7.4-9,5.6-15
			c8.6-1.7,5.4,15.1,14.4,5.4c-1.1-1.3,1.1-4.3-0.3-4.9c-0.6,0.3-1.4,0.4-2.4,0.3c1.2-0.4,2-0.5,2.4-0.3c2.6-1.3,2.5-5.4,7.6-3.4
			c-4.7,2.6,5,6.3-1.7,10c0.4-2.1-3.8-1.6-4.8-1c2.2,2.4-0.5,6.3,5,6.3c3.4-0.6,7.9-0.7,7.3-4c-0.1-3.6-5.1,0.4-3-3.2
			c6.7-1.2,7.8,4.2,10.6-2.1c-4.2,0.5-5.3-3.2-5.2-5.6l4.9-1.5l-0.9,2.4c7.9,1.7,2.3-4.3,9.9-3.7l3.6,4.7c-1.8,4-11.1-1.8-9.7,4.8
			c5,0.3,6.6-3.1,11.3-1.4c-1,0.6-2.5,0.7-3.5,1.3c1.8,0.2,3.5,8.9,10.6,3.8c3.6-2,1-2.3,1.1-4.8c8-0.7,10.3-3.2,15.5-3.6
			c-1.1,4.8,9.1,0.5,3.4,5.4c-2.6-2.8-14.1-2.5-16.9,2c2.9,5.7-6.3-0.8-7.9,5c6.4,0.1,6.1,5.7,7.1,9.4c0.1,0,0.3,0,0.4,0
			c0.7-0.2,1.3-0.4,2-0.6c0.8-0.4,1.6-1,2.1-1.3c0.8-3.5-1.6-3.4-1.7-6.9c7.1,0.9,14-1,17.9-4.3c2.4,1.7,1.6,5.1-1.2,5.5
			c8.5-1,17.5-0.5,25.6,0.5c-4.4-4.8,5.2-2.4,5.9-4.5c-0.1-0.4-0.2-0.8-0.3-1.1c-0.1-0.1-0.1-0.2-0.2-0.4c-4.3-1.3-8-5.3-5.6-7.8
			c2.7,0.4-0.1,2.5,1,3.7c2.3-2,3.8,0.7,5.6,1.5c0.6-0.6,1.6-12.4,3.1-12.8c-1.2,1.7-2.1,13.2-3.1,12.8c-0.9,0.8-1,1.9-0.8,3
			c0.3,0.5,0.4,0.8,0.3,1.1c0.5,1.8,1.3,3.8,0.7,5.7c4.1-1.8,2.1-10.7,2.8-9.2c0.2-0.1,0.5-0.1,0.7-0.2c-0.1,0.2-0.3,0.4-0.5,0.6
			c0.4,0.4,1,0.6,2.2,0.6c5.6-2.4,12.4-4.4,18.6-5.3c7.8,4.2,19.7,0.1,26.6-0.1c0.5,0.3,0.9,0.7,1.2,1.1c4.1-0.2,8.2-0.5,12.1-0.9
			c-0.8,1.3-1.5,3.8-0.4,5.3c1-4,7.2-5,12.7-5.8c2.4,4.1,9.3-3.7,15.6-1.5l-0.5,0.9c4.7-4.3,7,2.5,10.8-2.7l3,3.2
			c2.1-5.8,6.8,3,10.7,0.1l-0.1-1.2c3.7-1.4,5.6,1.5,9,0.5l0.3,0.7c7.9-1.5,12.6,1.7,12.4-2.8c2.8,3.6-7.7,1.7-3.3,6.9
			c6.5-1.2,13.1-2,19.7-2.5l-0.7-0.6l-0.1-2.4c-0.5-10.4-0.2-20.7-0.3-31c2.3-2.3,3-3.8,5.2-4.3c-1.2-2-1.1-7.7-4-9.6
			c0.1,0.7,3-1.3,3.3-2.4c2.2-3.7-6.4-4.1-3.8-8.2c1.5,1.6,3.4,2.2,5.6,1.6c-4.5-3.5-3.8-8.2-5.3-12.3c1,0.6,1.6,1.6,3.4,1.5
			c-5.1-4.5,1.1-8.2-2.2-12.2l3.3,1.5c4.1-6.4-7-1.9-4.6-7.4c1.1,1.3,2.4,0.9,3.7,1.1c-6.1-5.1-4.1-13.5-6.1-18.6
			c0.5,0.3,1.4,0.2,1.4,0.2c-0.8-5.6,1.1-11.4-1.5-17.6c1.5-2.2,8.2,0.7,6.9-5.2c-6.7,0.2,7.2-10-0.4-6.5c1.1-5,3.6-13,1.3-16.4
			C372.7,166.2,368.4,161.4,368.9,165.6z M-31.1,72c0.2-0.7,0.7-1-0.1-1.8c1.2-1.3,3.1,0.1,3.4,1.1L-31.1,72z M-27.1,93.6
			c-0.2-1.1-2.4-3.5,0.5-4.6C-28.7,90.2-23.3,94.5-27.1,93.6z M-34.8,140c-0.1-1.5,1-2.3,2.2-3.1c0.1-0.3,0.3-0.4,0.8-0.4
			c-0.3,0.1-0.5,0.3-0.8,0.4C-32.9,138-31.3,140.5-34.8,140z M-28.8,141.6c2.2-1.8,3.4-1.3,3.4,1.2
			C-26.8,142.9-27.5,142.1-28.8,141.6z M67.4,310.9c-1.6-0.9,0.1-2.4,1.5-2.6l0.8,2.6C68.8,310.7,68.4,310.4,67.4,310.9z
			 M97.4,307.8c-1.4,0.2-4.5,1.9-5.9-0.4C93,308.9,98.5,304.7,97.4,307.8z M99.2-8.4c3-1.3,2.1,1.9,2.6,2.2
			C99.1-5.9,102.8-8.7,99.2-8.4z M157,313.7c-1.9,0-3-0.8-4-1.8c-0.3-0.1-0.6-0.2-0.6-0.6c0.2,0.2,0.4,0.4,0.6,0.6
			C154.4,312.3,157.6,311,157,313.7z M159,309.1c-2.4-1.7-1.7-2.7,1.5-2.6C160.7,307.5,159.6,308.1,159,309.1z M186.4,317.5
			c0.4-2,6.8-3.7,10.5-3.9L186.4,317.5z M215.9,307.5c-0.2,0.7-1.6-0.9-2-1.3c1.4-0.2,2.8-2.1,3.9-0.9
			C216.4,305.5,216.6,306.6,215.9,307.5z M311.8-11.2l0.4-2l2.6,1L311.8-11.2z M355.6,97c-0.3-2.1,3.3,0.8,2.9-2
			C360.1,97.4,356,96.7,355.6,97z M367,187.4l-5.3,0.5l-0.1-0.7L367,187.4z"/>
		<path fill="#00AEEF" stroke="#00AEEF" d="M361.8,18c-1.1-0.9-1.5-0.6-1.5,0.3c0,0.1,0.1,0.2,0.1,0.2C360.7,18.2,361.1,18,361.8,18
			z"/>
		<path fill="#00AEEF" stroke="#00AEEF" d="M360.9,21.4c0.1,0,0.2,0,0.3,0c0-1-0.4-1.9-0.9-2.9c0,0-0.1,0.1-0.1,0.1
			C360.4,19.4,360.6,20.3,360.9,21.4z"/>
		<path fill="#00AEEF" stroke="#00AEEF" d="M-39.2,118c0.4-0.2,0.6-0.5,0.7-0.7C-38.8,117.4-39,117.7-39.2,118z"/>
		<path fill="#00AEEF" stroke="#00AEEF" d="M362.2,25c0.2,0.7,0.5,1.3,0.6,1.9C363.1,26.4,362.7,25.8,362.2,25z"/>
		<path fill="#00AEEF" stroke="#00AEEF" d="M0.2-10.9c-1.1,0.9-0.7,1.2,0.4,1.2c0.1,0,0.2-0.1,0.3-0.1C0.6-10.1,0.3-10.4,0.2-10.9z"
			/>
	</g>
	<g display="inline">
		<path d="M92.5,228.1v25.1h-6v-12.3l-5.6,4.6l-5.5-4.6v12.3h-6v-25.1l11.6,9.6L92.5,228.1z"/>
		<path d="M118.1,230v6h-17.1v17.2h-6V230H118.1z"/>
		<path d="M126.5,250.2c0,1.6-1.3,3-3,3c-1.6,0-3-1.4-3-3c0-1.7,1.4-3,3-3C125.1,247.2,126.5,248.5,126.5,250.2z"/>
		<path d="M152,230v6h-17.1v11.1H152v6h-23.2V230H152z"/>
		<path d="M177.5,230v23.2h-23.2v-14.6h17.1v-2.5h-17.1v-6H177.5z M160.4,244.6v2.5h11.1v-2.5H160.4z"/>
		<path d="M203,229v24.2h-6v-16.1l-11.1,3.3v12.8h-6V230h6v4.1L203,229z"/>
		<path d="M228.6,253.2h-23.2V230h17.1v-4.3h6V253.2z M222.5,236.1h-11.1v11.1h11.1V236.1z"/>
		<path d="M248.1,230h6v23.2h-23.2V230h6v17.1h11.1V230z"/>
	</g>
	<g display="inline">
		<g>
			<path d="M299.6,79.8c-0.5,0-1-0.3-1.2-0.7c-0.4-0.8,0.2-1.7,1.3-2.8c5-5.4-0.2-19.8-0.2-19.9c-0.2-0.4,0-0.9,0.4-1.2l6.9-4.5
				c0.2-0.1,0.4-0.2,0.5-0.2c0.3,0,0.6,0.1,0.7,0.3c0.1,0.2,3.6,4.2,4.4,13.3c0.3,3.8-2.2,7.4-4.4,9.7
				C305.3,76.9,301.2,79.8,299.6,79.8L299.6,79.8z"/>
			<path fill="#00AEEF" d="M307.4,51.5c0,0,3.4,3.8,4.1,12.7c0.6,7-10,14.5-11.8,14.5c-0.5,0-0.4-0.5,0.8-1.8c5.5-5.9,0-21,0-21
				L307.4,51.5 M307.4,49.5c-0.4,0-0.8,0.1-1.1,0.3l-6.9,4.5c-0.8,0.5-1.1,1.5-0.8,2.4c1.4,3.9,4.2,14.8,0.4,18.9
				c-0.8,0.8-2.1,2.3-1.4,3.8c0.4,0.8,1.2,1.3,2.1,1.3c2.1,0,6.5-3.2,9.2-6.2c2.3-2.5,5-6.3,4.6-10.5c-0.8-9.5-4.5-13.7-4.6-13.9
				C308.5,49.7,307.9,49.5,307.4,49.5L307.4,49.5z"/>
		</g>
		<g>
			<path d="M291.8,117.4c-10.2,0-20.5-2.1-20.5-6.1c0-4,10.3-6.1,20.5-6.1c10.2,0,20.5,2.1,20.5,6.1
				C312.3,115.2,302,117.4,291.8,117.4L291.8,117.4z"/>
			<path fill="#00AEEF" d="M291.8,106.1c10.8,0,19.5,2.3,19.5,5.1c0,2.8-8.7,5.1-19.5,5.1c-10.8,0-19.5-2.3-19.5-5.1
				C272.3,108.4,281,106.1,291.8,106.1 M291.8,104.1c-2.2,0-21.5,0.2-21.5,7.1c0,6.9,19.3,7.1,21.5,7.1c2.2,0,21.5-0.2,21.5-7.1
				C313.3,104.3,294,104.1,291.8,104.1L291.8,104.1z"/>
		</g>
		<g>
			<path d="M234.6,209.5c-17.7,0-32.5-4-32.7-4c-0.4-0.1-0.7-0.5-0.7-1V177c0-0.3,0.1-0.6,0.4-0.8c0.2-0.2,0.4-0.2,0.6-0.2
				c0.1,0,0.1,0,0.2,0c0.1,0,7.9,1.3,18.7,1.3c10,0,24.6-1.2,37.6-6.7c24.6-10.4,22.5-62.7,22.4-63.3c0-0.3,0.1-0.5,0.3-0.7
				c0.2-0.2,0.4-0.3,0.7-0.3h20.1c0.5,0,0.9,0.3,1,0.8c0.1,0.4,8.1,44.9-15.4,79.7C275.2,205.6,251.9,209.5,234.6,209.5
				C234.6,209.5,234.6,209.5,234.6,209.5z"/>
			<path fill="#00AEEF" d="M302.2,107.4c0,0,8.3,44.1-15.2,78.9c-12,17.8-33.9,22.1-52.4,22.1c-17.7,0-32.4-4-32.4-4V177
				c0,0,7.8,1.3,18.9,1.3c11,0,25.3-1.3,38-6.7c25.5-10.8,23-64.2,23-64.2H302.2 M302.2,105.4h-20.1c-0.5,0-1.1,0.2-1.4,0.6
				c-0.4,0.4-0.6,0.9-0.6,1.5c0,0.5,2.1,52.2-21.8,62.3c-12.9,5.4-27.3,6.6-37.2,6.6c-10.7,0-18.5-1.3-18.5-1.3c-0.1,0-0.2,0-0.3,0
				c-0.5,0-0.9,0.2-1.3,0.5c-0.5,0.4-0.7,0.9-0.7,1.5v27.5c0,0.9,0.6,1.7,1.5,1.9c0.6,0.2,15.1,4.1,32.9,4.1c25.2,0,43.9-8,54.1-23
				c12.4-18.4,16-39.2,16.8-53.5c0.9-15.5-1.2-26.4-1.3-26.9C304,106.1,303.2,105.4,302.2,105.4L302.2,105.4z"/>
		</g>
		<g>
			<path d="M305.7,75.4c-0.5,0-1-0.3-1.2-0.7c-0.4-0.8,0.2-1.7,1.3-2.8c5-5.4-0.2-19.8-0.2-19.9c-0.2-0.4,0-0.9,0.4-1.2l6.9-4.5
				c0.2-0.1,0.4-0.2,0.5-0.2c0.3,0,0.6,0.1,0.7,0.3c0.1,0.2,3.6,4.2,4.4,13.3c0.3,3.8-2.2,7.4-4.4,9.7
				C311.3,72.6,307.3,75.4,305.7,75.4L305.7,75.4z"/>
			<path fill="#00AEEF" d="M313.4,47.1c0,0,3.4,3.8,4.1,12.7c0.6,7-10,14.5-11.9,14.5c-0.5,0-0.4-0.5,0.8-1.8c5.5-5.9,0-21,0-21
				L313.4,47.1 M313.4,45.1c-0.4,0-0.8,0.1-1.1,0.3l-6.9,4.5c-0.8,0.5-1.1,1.5-0.8,2.4c1.4,3.9,4.2,14.8,0.4,18.9
				c-0.8,0.8-2.1,2.3-1.4,3.8c0.4,0.8,1.2,1.3,2.1,1.3c2.1,0,6.5-3.2,9.2-6.2c2.3-2.5,5-6.3,4.6-10.5c-0.8-9.5-4.5-13.7-4.6-13.9
				C314.5,45.3,314,45.1,313.4,45.1L313.4,45.1z"/>
		</g>
		<g>
			<path d="M290,94.6c-0.6,0-1-0.4-1-1v-9.3c-7.7-0.5-15.4-6.6-15.4-17.5c0-10.8,5.6-21.4,5.8-21.8c0.2-0.3,0.5-0.5,0.8-0.5
				c0,0,0.1,0,0.1,0c0.3,0,0.6,0.1,0.8,0.4c0,0,2.7,3.6,7.6,6.4c0.4,0.2,0.6,0.7,0.5,1.2c-1.9,6.5-1.5,12.3,1.2,15.8
				c1.5,2,3.6,3.1,6,3.1c7.3,0,12.2-1.9,14.6-5.7c4.2-6.5-0.5-16.7-0.5-16.8c-0.2-0.5,0-1,0.4-1.3l5.1-2.9c0.2-0.1,0.3-0.1,0.5-0.1
				c0.2,0,0.4,0.1,0.5,0.2c0.3,0.2,7.8,5.2,7.8,18.5c0,18.3-21.2,20.8-26.1,21.2v9.3c0,0.6-0.4,1-1,1H290z"/>
			<path fill="#00AEEF" d="M316.5,45.4c0,0,7.4,4.8,7.4,17.7c0,19.9-26.1,20.2-26.1,20.2v10.3H290V83.3c-7.7,0-15.4-5.9-15.4-16.5
				c0-10.7,5.7-21.3,5.7-21.3s2.8,3.7,7.9,6.6c-3.7,12.5,1.5,20.2,8.1,20.2c26.2,0,15-23.9,15-23.9L316.5,45.4 M316.5,43.4
				c-0.3,0-0.7,0.1-1,0.3l-5.1,2.9c-0.9,0.5-1.3,1.6-0.8,2.6c0,0.1,4.5,9.8,0.6,15.9c-2.2,3.5-6.9,5.2-13.8,5.2c-2,0-3.9-1-5.2-2.7
				c-2.5-3.3-2.8-8.7-1-14.9c0.3-0.9-0.1-1.8-0.9-2.3c-4.7-2.7-7.3-6.1-7.3-6.1c-0.4-0.5-1-0.8-1.6-0.8c-0.1,0-0.1,0-0.2,0
				c-0.7,0.1-1.3,0.4-1.6,1.1c-0.2,0.5-5.9,11.2-5.9,22.3c0,11.1,7.6,17.5,15.4,18.4v8.4c0,1.1,0.9,2,2,2h7.7c1.1,0,2-0.9,2-2v-8.4
				c2.5-0.2,7.1-0.9,11.8-2.7c9.4-3.7,14.3-10.4,14.3-19.4c0-13.8-7.9-19.1-8.3-19.3C317.2,43.5,316.8,43.4,316.5,43.4L316.5,43.4z"
				/>
		</g>
		<g>
			<path d="M311.3,112.2c-0.4,0-0.8-0.2-0.9-0.6c-0.1-0.1-2.4-4.5-18.6-4.5c-12.2,0-14.7,0.4-18.8,4.8c-0.2,0.2-0.5,0.3-0.7,0.3
				c-0.1,0-0.2,0-0.4-0.1c-0.4-0.1-0.6-0.5-0.6-0.9v-15c0-4,10.3-6.1,20.5-6.1c10.2,0,20.5,2.1,20.5,6.1v15c0,0.5-0.3,0.9-0.8,1
				C311.4,112.2,311.4,112.2,311.3,112.2L311.3,112.2z"/>
			<path fill="#00AEEF" d="M291.8,91c10.8,0,19.5,2.3,19.5,5.1v15c0,0-1.9-5.1-19.5-5.1c-12.3,0-15.1,0.4-19.5,5.1c0-7.7,0-15,0-15
				C272.3,93.3,281,91,291.8,91 M291.8,89c-2.2,0-21.5,0.2-21.5,7.1v15c0,0.8,0.5,1.6,1.3,1.9c0.2,0.1,0.5,0.1,0.7,0.1
				c0.6,0,1.1-0.2,1.5-0.7c3.7-4,5.5-4.5,18-4.5c14.2,0,17.3,3.4,17.7,3.9c0.2,0.9,1,1.4,1.9,1.4c0.1,0,0.2,0,0.2,0
				c1-0.1,1.8-1.1,1.8-2.1v-15C313.3,89.2,294,89,291.8,89L291.8,89z"/>
		</g>
		<path fill="none" stroke="#00AEEF" stroke-width="2" stroke-linecap="round" stroke-linejoin="round" d="M280.2,135.2
			c0,0,14.3,7.4,22.7,5.5"/>
		<path fill="none" stroke="#00AEEF" stroke-width="2" stroke-linecap="round" stroke-linejoin="round" d="M274.5,154.8
			c0,0,9.3,10.8,21.8,13.7"/>
		<path fill="none" stroke="#00AEEF" stroke-width="2" stroke-linecap="round" stroke-linejoin="round" d="M264.3,168.5
			c0,0,10.5,20.8,15.9,25.7"/>
		<path fill="none" stroke="#00AEEF" stroke-width="2" stroke-linecap="round" stroke-linejoin="round" d="M241.8,176.6
			c0,0,2.5,22.1,1.8,31.5"/>
		<path fill="none" stroke="#00AEEF" stroke-width="2" stroke-linecap="round" stroke-linejoin="round" d="M218.3,178.3
			c0,0,1.8,22,0,29.1"/>
	</g>
	<g display="inline">
		<g>
			<path d="M26.2,79.8c-1.6,0-5.6-2.8-8.5-5.9c-2.2-2.3-4.7-5.9-4.4-9.7c0.8-9.2,4.2-13.2,4.4-13.3c0.2-0.2,0.5-0.3,0.7-0.3
				c0.2,0,0.4,0.1,0.5,0.2l6.9,4.5c0.4,0.3,0.6,0.7,0.4,1.2c-0.1,0.1-5.2,14.6-0.2,19.9c1,1.1,1.6,2,1.3,2.8
				C27.2,79.5,26.7,79.8,26.2,79.8L26.2,79.8z"/>
			<path fill="#00AEEF" d="M18.4,51.5l6.9,4.5c0,0-5.5,15.1,0,21c1.2,1.3,1.3,1.8,0.8,1.8c-1.8,0-12.4-7.5-11.9-14.5
				C15.1,55.3,18.4,51.5,18.4,51.5 M18.4,49.5c-0.6,0-1.1,0.2-1.5,0.7c-0.2,0.2-3.8,4.4-4.6,13.9c-0.3,4.1,2.3,8,4.6,10.5
				c2.8,3,7.1,6.2,9.2,6.2c0.9,0,1.7-0.5,2.1-1.3c0.7-1.6-0.7-3-1.4-3.8c-3.8-4.1-1-15,0.4-18.9c0.3-0.9,0-1.9-0.8-2.4l-6.9-4.5
				C19.2,49.6,18.8,49.5,18.4,49.5L18.4,49.5z"/>
		</g>
		<g>
			<path d="M34,117.4c-10.2,0-20.5-2.1-20.5-6.1c0-4,10.3-6.1,20.5-6.1c10.2,0,20.5,2.1,20.5,6.1C54.5,115.2,44.2,117.4,34,117.4
				L34,117.4z"/>
			<path fill="#00AEEF" d="M34,106.1c10.8,0,19.5,2.3,19.5,5.1c0,2.8-8.7,5.1-19.5,5.1c-10.8,0-19.5-2.3-19.5-5.1
				C14.5,108.4,23.2,106.1,34,106.1 M34,104.1c-2.2,0-21.5,0.2-21.5,7.1c0,6.9,19.3,7.1,21.5,7.1c2.2,0,21.5-0.2,21.5-7.1
				C55.5,104.3,36.2,104.1,34,104.1L34,104.1z"/>
		</g>
		<g>
			<path d="M91.2,209.5c-17.3,0-40.6-3.9-53.3-22.6c-23.5-34.8-15.4-79.2-15.4-79.7c0.1-0.5,0.5-0.8,1-0.8h20.1
				c0.3,0,0.5,0.1,0.7,0.3c0.2,0.2,0.3,0.5,0.3,0.7c0,0.5-2.1,52.9,22.4,63.3c13,5.5,27.6,6.7,37.6,6.7c10.8,0,18.6-1.3,18.7-1.3
				c0.1,0,0.1,0,0.2,0c0.2,0,0.5,0.1,0.6,0.2c0.2,0.2,0.4,0.5,0.4,0.8v27.5c0,0.5-0.3,0.8-0.7,1C123.7,205.5,108.9,209.5,91.2,209.5
				L91.2,209.5z"/>
			<path fill="#00AEEF" d="M43.7,107.4c0,0-2.5,53.4,23,64.2c12.7,5.4,27,6.7,38,6.7c11,0,18.9-1.3,18.9-1.3v27.5c0,0-14.7,4-32.4,4
				c-18.5,0-40.4-4.3-52.4-22.1c-23.5-34.8-15.2-78.9-15.2-78.9H43.7 M43.7,105.4H23.6c-1,0-1.8,0.7-2,1.6
				c-0.1,0.5-2.1,11.4-1.3,26.9c0.8,14.3,4.4,35.2,16.8,53.5c10.2,15.1,28.9,23,54.1,23c17.8,0,32.3-3.9,32.9-4.1
				c0.9-0.2,1.5-1,1.5-1.9V177c0-0.6-0.3-1.1-0.7-1.5c-0.4-0.3-0.8-0.5-1.3-0.5c-0.1,0-0.2,0-0.3,0c-0.1,0-7.8,1.3-18.5,1.3
				c-9.9,0-24.4-1.1-37.2-6.6c-23.9-10.1-21.9-61.8-21.8-62.3c0-0.5-0.2-1.1-0.6-1.5C44.7,105.6,44.2,105.4,43.7,105.4L43.7,105.4z"
				/>
		</g>
		<g>
			<path d="M20.1,75.4c-1.6,0-5.6-2.8-8.5-5.9c-2.2-2.3-4.7-5.9-4.4-9.7c0.8-9.2,4.2-13.2,4.4-13.3c0.2-0.2,0.5-0.3,0.7-0.3
				c0.2,0,0.4,0.1,0.5,0.2l6.9,4.5c0.4,0.3,0.6,0.7,0.4,1.2C20.2,52.1,15,66.5,20,71.9c1,1.1,1.6,2,1.3,2.8
				C21.1,75.1,20.6,75.4,20.1,75.4L20.1,75.4z"/>
			<path fill="#00AEEF" d="M12.4,47.1l6.9,4.5c0,0-5.5,15.1,0,21c1.2,1.3,1.3,1.8,0.8,1.8c-1.8,0-12.4-7.5-11.9-14.5
				C9,50.9,12.4,47.1,12.4,47.1 M12.4,45.1c-0.6,0-1.1,0.2-1.5,0.7c-0.2,0.2-3.8,4.4-4.6,13.9c-0.3,4.1,2.3,8,4.6,10.5
				c2.8,3,7.1,6.2,9.2,6.2c0.9,0,1.7-0.5,2.1-1.3c0.7-1.6-0.7-3-1.4-3.8c-3.8-4.1-1-15,0.4-18.9c0.3-0.9,0-1.9-0.8-2.4l-6.9-4.5
				C13.1,45.2,12.7,45.1,12.4,45.1L12.4,45.1z"/>
		</g>
		<g>
			<path d="M28.1,94.6c-0.6,0-1-0.4-1-1v-9.3C22.2,83.9,1,81.4,1,63c0-13.3,7.5-18.3,7.8-18.5c0.2-0.1,0.4-0.2,0.5-0.2
				c0.2,0,0.3,0,0.5,0.1l5.1,2.9c0.5,0.3,0.6,0.8,0.4,1.3c0,0.1-4.7,10.3-0.5,16.8c2.4,3.8,7.3,5.7,14.6,5.7c2.4,0,4.5-1.1,6-3.1
				c2.7-3.5,3.1-9.3,1.2-15.8c-0.1-0.4,0.1-0.9,0.5-1.2c4.9-2.8,7.6-6.3,7.6-6.4c0.2-0.3,0.5-0.4,0.8-0.4c0,0,0.1,0,0.1,0
				c0.3,0,0.6,0.2,0.8,0.5c0.2,0.4,5.8,11,5.8,21.8c0,10.9-7.8,17-15.4,17.5v9.3c0,0.6-0.4,1-1,1H28.1z"/>
			<path fill="#00AEEF" d="M45.6,45.4c0,0,5.7,10.7,5.7,21.3c0,10.7-7.7,16.5-15.4,16.5v10.3h-7.7V83.3C28.1,83.3,2,82.9,2,63
				c0-12.9,7.4-17.7,7.4-17.7l5.1,2.9c0,0-11.1,23.9,15,23.9c6.7,0,11.8-7.7,8.1-20.2C42.8,49.1,45.6,45.4,45.6,45.4 M45.6,43.4
				c-0.6,0-1.2,0.3-1.6,0.8l0,0c0,0-2.6,3.4-7.3,6.1c-0.8,0.5-1.2,1.4-0.9,2.3c1.8,6.2,1.5,11.6-1,14.9c-1.3,1.8-3.2,2.7-5.2,2.7
				c-7,0-11.6-1.8-13.8-5.2c-3.9-6.1,0.5-15.7,0.6-15.8c0.4-0.9,0.1-2.1-0.8-2.6l-5.1-2.9c-0.3-0.2-0.7-0.3-1-0.3
				c-0.4,0-0.8,0.1-1.1,0.3C7.9,43.9,0,49.2,0,63c0,9,5,15.7,14.3,19.4c4.7,1.8,9.3,2.5,11.8,2.7v8.4c0,1.1,0.9,2,2,2h7.7
				c1.1,0,2-0.9,2-2v-8.4c7.8-0.9,15.4-7.3,15.4-18.4c0-11-5.7-21.8-5.9-22.3c-0.3-0.6-0.9-1-1.6-1.1C45.7,43.4,45.6,43.4,45.6,43.4
				L45.6,43.4z"/>
		</g>
		<g>
			<path d="M53.5,112.2c-0.3,0-0.5-0.1-0.7-0.3c-4.1-4.5-6.6-4.8-18.8-4.8c-16.3,0-18.6,4.5-18.6,4.5c-0.2,0.4-0.5,0.6-0.9,0.6
				c-0.1,0-0.1,0-0.2,0c-0.5-0.1-0.8-0.5-0.8-1v-15c0-4,10.3-6.1,20.5-6.1c10.2,0,20.5,2.1,20.5,6.1v15c0,0.4-0.3,0.8-0.6,0.9
				C53.8,112.2,53.7,112.2,53.5,112.2L53.5,112.2z"/>
			<path fill="#00AEEF" d="M34,91c10.8,0,19.5,2.3,19.5,5.1c0,0,0,7.3,0,15c-4.4-4.8-7.2-5.1-19.5-5.1c-17.6,0-19.5,5.1-19.5,5.1
				v-15C14.5,93.3,23.2,91,34,91 M34,89c-2.2,0-21.5,0.2-21.5,7.1v15c0,1,0.7,2,1.8,2.1c0.1,0,0.2,0,0.2,0c0.9,0,1.6-0.5,1.9-1.4
				c0.4-0.5,3.4-3.9,17.7-3.9c12.5,0,14.3,0.5,18,4.5c0.4,0.4,0.9,0.7,1.5,0.7c0.2,0,0.5,0,0.7-0.1c0.8-0.3,1.3-1,1.3-1.9v-15
				C55.5,89.2,36.2,89,34,89L34,89z"/>
		</g>
		<path fill="none" stroke="#00AEEF" stroke-width="2" stroke-linecap="round" stroke-linejoin="round" d="M45.6,135.2
			c0,0-14.3,7.4-22.7,5.5"/>
		<path fill="none" stroke="#00AEEF" stroke-width="2" stroke-linecap="round" stroke-linejoin="round" d="M51.3,154.8
			c0,0-9.3,10.8-21.8,13.7"/>
		<path fill="none" stroke="#00AEEF" stroke-width="2" stroke-linecap="round" stroke-linejoin="round" d="M61.5,168.5
			c0,0-10.5,20.8-15.9,25.7"/>
		<path fill="none" stroke="#00AEEF" stroke-width="2" stroke-linecap="round" stroke-linejoin="round" d="M84,176.6
			c0,0-2.5,22.1-1.8,31.5"/>
		<path fill="none" stroke="#00AEEF" stroke-width="2" stroke-linecap="round" stroke-linejoin="round" d="M107.6,178.3
			c0,0-1.8,22,0,29.1"/>
	</g>
	<line display="inline" fill="none" stroke="#000000" stroke-width="4" x1="82.4" y1="116.4" x2="82.4" y2="19.2"/>
	<path display="inline" d="M113.4,116.3c0,8.3-9.9,15.1-22.1,15.1c-12.2,0-22.1-6.8-22.1-15.1c0-8.4,9.9-15.1,22.1-15.1
		C103.6,101.2,113.4,108,113.4,116.3z"/>
	<path display="inline" fill-rule="evenodd" clip-rule="evenodd" d="M80,2.6c0.5-0.5,0.6-1.3,0.6-2.2c0.7-0.5,2.6-0.5,3.6-0.2
		c-0.2,1.3,0.1,1.2,0.4,2.2c0.5,0.3,1.4,0.1,1.8,0.4c0.6-0.5,1-1.3,1.4-2C88.9,1.1,90,1.7,91,2.2c0.1,0.9-0.4,1.3-0.4,2.2
		c0.2,0.7,1,0.7,1.4,1.2c0.7-0.3,1.1-0.9,1.8-1.2c1.2,0.4,1.6,1.6,2.6,2.2c-0.3,0.8-0.8,1.4-1.4,2c0.3,0.5,0.7,1,1,1.6
		c0.8-0.1,1.4-0.4,2.4-0.4c0.8,0.9,0.8,2.5,1.4,3.6c-0.5,0.6-1.5,0.8-2,1.4c-0.2,1.6,1.5,1.3,2.6,1.6c0,1.6-0.1,2.1,0,3.5
		c-0.6,0.2-1.4,0.3-2.2,0.4c-0.5,0.3-0.2,1.4-0.6,1.8c0.4,0.8,1.4,0.9,2,1.6c-0.3,1.3-1,2.1-1.4,3.4c-0.7-0.3-1.6-0.2-2.2-0.6
		c-0.5,0.2-0.8,0.7-1,1.2c0.2,0.8,0.7,1.3,1,2c-0.4,1.1-1.4,1.6-2.2,2.4c-0.9-0.2-1.3-0.8-2-1.2c-0.7,0.2-1.2,0.7-1.6,1.2
		c0.1,0.7,0.2,1.5,0.4,2.2c-1.1,0.4-2,1-3.4,1.2c-0.3-0.7-0.9-1.2-1.2-2c-0.5,0-0.6,0.3-1.2,0.2c-0.6,0.4-0.3,1.8-0.8,2.4
		c-1.5,0-2,0.1-3.4,0c-0.2-0.6-0.3-1.4-0.4-2.2c-0.5-0.3-1.3-0.2-2-0.4c-0.5,0.5-0.8,1.3-1.4,1.8c-1.4-0.1-2-0.9-3.2-1.2
		c-0.1-1,0.5-1.4,0.4-2.4c-0.2-0.4-0.8-0.4-1-0.8c-0.6,0.4-1.4,0.6-1.8,1.2c-1-0.7-2.2-1.3-2.8-2.6c0.5-0.5,0.7-1.2,1.2-1.8
		c-0.3-0.7-0.7-1.3-1.2-1.8c-0.9,0-1.5,0.3-2.4,0.4c-0.3-1-0.8-1.7-1-2.8c0.2-0.9,1.4-0.8,1.8-1.6c0.1-0.7-0.3-0.8-0.2-1.6
		c-0.7-0.3-1.6-0.3-2.4-0.6c0-1.1,0-2.1,0-3.2c0.9,0,1.3-0.5,2.2-0.4c0.3-0.5,0.5-1.1,0.4-2c-0.4-0.6-1.3-0.8-1.8-1.4
		c0.2-1.2,0.8-2,1.2-3.2c1,0,1.7,0.2,2.4,0.4c0.5-0.2,0.5-0.9,1-1.2c-0.2-0.9-0.9-1.2-1.2-2c0.5-1,1.3-1.8,2.4-2.4
		c0.4,0.6,1.3,0.6,1.6,1.2c0.7-0.3,1.3-0.7,1.8-1.2C74.5,3.4,74,3,74.1,2c1-0.3,1.9-0.8,3-1.2C78.6,1.7,77.6,3.1,80,2.6z M93.8,15.6
		c-1.7-6.2-8.6-10.9-16.6-7.9c-2.7,2.3-5.5,4.4-5.9,8.7C70.6,23,74.6,27.1,79.4,29c0.2,0.3,0.4-0.5,1,0c0-2,0-3.9,0-5.9
		c-3.9-1-4.1-9.2-0.2-9.7c-0.1,1.9,0.2,3.9,0.2,5.1c1.4,0,2.9,0,4.3,0c0-1.8,0-3.7,0-5.5c4.3,1.4,3.8,8.5,0,10.3c0,1.8,0,3.7,0,5.5
		C91,27.6,93.9,22.6,93.8,15.6z"/>
	<line display="inline" fill="none" stroke="#000000" stroke-width="4" x1="243.5" y1="116.4" x2="243.5" y2="19.2"/>
	<path display="inline" d="M212.5,116.3c0,8.3,9.9,15.1,22.1,15.1c12.2,0,22.1-6.8,22.1-15.1c0-8.4-9.9-15.1-22.1-15.1
		C222.4,101.2,212.5,108,212.5,116.3z"/>
	<path display="inline" fill-rule="evenodd" clip-rule="evenodd" d="M249,0.8c1,0.4,1.9,0.8,3,1.2c0.1,1-0.5,1.4-0.4,2.4
		c0.5,0.5,1,0.9,1.8,1.2c0.3-0.6,1.2-0.6,1.6-1.2c1,0.5,1.8,1.3,2.4,2.4c-0.3,0.8-1,1.1-1.2,2c0.4,0.3,0.5,1,1,1.2
		c0.7-0.2,1.4-0.4,2.4-0.4c0.3,1.1,1,1.9,1.2,3.2c-0.5,0.6-1.4,0.7-1.8,1.4c-0.1,0.9,0.1,1.4,0.4,2c0.9-0.1,1.3,0.4,2.2,0.4
		c0,1,0,2.1,0,3.2c-0.7,0.3-1.7,0.3-2.4,0.6c0.1,0.7-0.3,0.8-0.2,1.6c0.4,0.7,1.5,0.7,1.8,1.6c-0.2,1.1-0.7,1.8-1,2.8
		c-0.9,0-1.4-0.4-2.4-0.4c-0.5,0.5-0.8,1.1-1.2,1.8c0.4,0.5,0.7,1.3,1.2,1.8c-0.5,1.2-1.7,1.8-2.8,2.6c-0.4-0.6-1.1-0.8-1.8-1.2
		c-0.2,0.4-0.8,0.4-1,0.8c-0.1,1,0.5,1.4,0.4,2.4c-1.2,0.3-1.8,1.1-3.2,1.2c-0.5-0.5-0.9-1.2-1.4-1.8c-0.6,0.2-1.5,0.1-2,0.4
		c-0.1,0.8-0.1,1.6-0.4,2.2c-1.3,0.1-1.8,0-3.4,0c-0.4-0.6-0.2-1.9-0.8-2.4c-0.6,0.1-0.7-0.2-1.2-0.2c-0.3,0.7-0.9,1.2-1.2,2
		c-1.4-0.2-2.2-0.8-3.4-1.2c0.2-0.7,0.3-1.4,0.4-2.2c-0.4-0.5-0.9-0.9-1.6-1.2c-0.7,0.4-1.1,1-2,1.2c-0.8-0.7-1.7-1.3-2.2-2.4
		c0.3-0.7,0.8-1.2,1-2c-0.2-0.5-0.5-0.9-1-1.2c-0.6,0.3-1.5,0.3-2.2,0.6c-0.4-1.2-1.1-2.1-1.4-3.4c0.5-0.6,1.6-0.8,2-1.6
		c-0.4-0.4-0.1-1.5-0.6-1.8c-0.8-0.1-1.6-0.2-2.2-0.4c0.1-1.5,0-1.9,0-3.5c1.1-0.3,2.8,0,2.6-1.6c-0.5-0.6-1.5-0.7-2-1.4
		c0.6-1.1,0.6-2.7,1.4-3.6c1,0,1.6,0.3,2.4,0.4c0.3-0.6,0.7-1,1-1.6c-0.6-0.6-1-1.2-1.4-2c1-0.6,1.4-1.8,2.6-2.2
		c0.7,0.3,1.1,0.9,1.8,1.2c0.4-0.4,1.2-0.5,1.4-1.2c0-0.9-0.5-1.3-0.4-2.2c1-0.5,2.1-1.1,3.4-1.4c0.4,0.7,0.8,1.5,1.4,2
		c0.4-0.3,1.3-0.1,1.8-0.4c0.3-1,0.6-0.9,0.4-2.2c1-0.3,2.8-0.3,3.5,0.2c0,0.9,0.1,1.7,0.6,2.2C248.4,3.1,247.3,1.7,249,0.8z
		 M241.3,28.8c0-1.8,0-3.7,0-5.5c-3.8-1.7-4.3-8.8,0-10.3c0,1.8,0,3.7,0,5.5c1.4,0,2.9,0,4.3,0c0-1.2,0.3-3.3,0.2-5.1
		c3.9,0.5,3.7,8.7-0.2,9.7c0,2,0,3.9,0,5.9c0.6-0.5,0.8,0.3,1,0c4.8-1.9,8.8-6,8.1-12.6c-0.4-4.3-3.2-6.3-5.9-8.7
		c-7.9-3-14.8,1.6-16.6,7.9C232,22.6,235,27.6,241.3,28.8z"/>
	<g display="inline">
		<path d="M113.5,216c-0.3,0-0.6-0.2-0.8-0.4c-0.2-0.3-0.2-0.6-0.1-0.9l10-31.8c0.1-0.4,0.5-0.7,1-0.7h78.7c0.4,0,0.8,0.3,1,0.7
			l10,31.8c0.1,0.3,0,0.6-0.1,0.9c-0.2,0.3-0.5,0.4-0.8,0.4H113.5z"/>
		<path fill="#00AEEF" d="M202.2,183.2l10,31.8h-98.7l10-31.8H202.2 M202.2,181.2h-78.7c-0.9,0-1.6,0.6-1.9,1.4l-10,31.8
			c-0.2,0.6-0.1,1.3,0.3,1.8c0.4,0.5,1,0.8,1.6,0.8h98.7c0.6,0,1.2-0.3,1.6-0.8c0.4-0.5,0.5-1.2,0.3-1.8l-10-31.8
			C203.8,181.7,203.1,181.2,202.2,181.2L202.2,181.2z"/>
	</g>
	<g display="inline">
		<path d="M145.7,188c-12.1,0-25.5-5.4-35.9-14.4c-12-10.5-18.6-24.7-18.6-40V59.1c0-8,6.5-14.5,14.5-14.5h114.4
			c8,0,14.5,6.5,14.5,14.5v74.4c0,15.5-6.5,29.7-18.2,40c-10.2,9-23.8,14.4-36.3,14.4H145.7z"/>
		<path fill="#00AEEF" d="M220.1,45.7c7.4,0,13.5,6,13.5,13.5v74.4c0,33.5-29.7,53.5-53.5,53.5h-34.4c-22.6,0-53.5-20-53.5-53.5
			V59.1c0-7.4,6-13.5,13.5-13.5H220.1 M220.1,43.7H105.7c-8.5,0-15.5,6.9-15.5,15.5v74.4c0,15.7,6.7,30.1,19,40.8
			c10.6,9.2,24.2,14.7,36.5,14.7h34.4c12.7,0,26.5-5.5,37-14.7c11.9-10.5,18.5-25,18.5-40.8V59.1C235.5,50.6,228.6,43.7,220.1,43.7
			L220.1,43.7z"/>
	</g>
	<g display="inline">
		<path d="M153.4,129.6c-0.3,0-0.6-0.2-0.8-0.4c-0.2-0.3-0.2-0.6-0.1-0.9l9.5-24.5c0.1-0.4,0.5-0.6,0.9-0.6c0.4,0,0.8,0.3,0.9,0.6
			l9.5,24.5c0.1,0.3,0.1,0.7-0.1,0.9c-0.2,0.3-0.5,0.4-0.8,0.4H153.4z"/>
		<g>
			<path fill="#00AEEF" d="M162.9,104.1l9.5,24.5h-9.5h-9.5L162.9,104.1 M162.9,102.1c-0.8,0-1.6,0.5-1.9,1.3l-9.5,24.5
				c-0.2,0.6-0.2,1.3,0.2,1.9c0.4,0.5,1,0.9,1.7,0.9h9.5h9.5c0.7,0,1.3-0.3,1.7-0.9c0.4-0.5,0.5-1.2,0.2-1.9l-9.5-24.5
				C164.4,102.6,163.7,102.1,162.9,102.1L162.9,102.1z"/>
		</g>
	</g>
	<g display="inline">
		<path fill="none" stroke="#000000" d="M133.6,143.5h58.5c0,0,1.6,23.5-29.4,23.5S133.6,143.5,133.6,143.5z"/>
		<g>
			<path d="M162.8,168c-10.9,0-19.1-2.9-24.3-8.5c-6.5-7-5.9-15.7-5.9-16.1c0-0.5,0.5-0.9,1-0.9h58.5c0.5,0,1,0.4,1,0.9
				c0,0.4,0.5,9.1-6,16.1C181.9,165.1,173.7,168,162.8,168L162.8,168z"/>
			<path fill="#00AEEF" d="M192.1,143.5c0,0,1.6,23.5-29.4,23.5s-29.1-23.5-29.1-23.5H192.1 M192.1,141.5h-58.5c-1,0-1.9,0.8-2,1.8
				c0,0.4-0.7,9.5,6.1,16.9c5.4,5.8,13.8,8.8,25,8.8c11.2,0,19.6-3,25.1-8.8c6.8-7.3,6.3-16.5,6.3-16.8
				C194,142.3,193.2,141.5,192.1,141.5L192.1,141.5z"/>
		</g>
		<g>
			<path fill="#FFFFFF" d="M190.6,152c1.8-4.6,1.5-8.5,1.5-8.5h-58.5c0,0-0.3,3.9,1.4,8.5H190.6z"/>
		</g>
		<g>
			<g>
				<path fill="#FFFFFF" d="M181.5,162.7c-1.4-3.6-4.9-6.2-9.1-6.2c-5.4,0-9.7,4.4-9.7,9.8c0,0.3,0,0.5,0,0.7c0,0,0.1,0,0.1,0
					C174.5,167.3,181.8,162.5,181.5,162.7z"/>
			</g>
		</g>
	</g>
	<polygon display="inline" fill="#FFFFFF" points="162.9,104.1 162.9,128.6 172.4,128.6 	"/>
	<g display="inline">
		
			<path fill-rule="evenodd" clip-rule="evenodd" fill="#F1F2F2" stroke="#00AEEF" stroke-linecap="round" stroke-linejoin="round" d="
			M124.1,64.4c-0.1,0,0.1-0.3,0.4-0.4c15.1-1.1,26.6,2.1,37.5,2.2c11.1,0.1,17.8-2.2,28.3-2.2c17.1,0,31.9,1.1,38.3,11.5
			c1.6,2.6,5.1,6,5.5,7.9c1.1,5.3-2.2,6.3-3.3,9.4c-2.2,6.4-2,12.2-4.7,16.2c-3.6,5.2-14.2,7.9-23.2,7.9c-19.3,0-28.1-9.8-35.1-23.1
			c-1.9-3.7-0.3-10.7-5-10.8c-5-0.1-3.6,7.7-5,10.5c-6.6,12.8-14.1,23.4-35.1,23.4c-9.2,0-20.5-2.6-24.2-9.4
			c-1.8-3.3-2.2-9.7-4-14.8c-1.2-3.5-3.9-5.8-3.3-9c0.4-1.9,1.4-2.2,2.9-4c3.2-3.8,4.6-8.6,9.1-11.5
			C108.1,65.1,117.7,64.8,124.1,64.4z M146.8,69.8c-5.1,0-13.5-0.5-18,0c-8,0.9-23.5-2.1-25.3,4c16.5,0.6,38.5,0.6,55,0
			C158.5,68.8,152.1,69.8,146.8,69.8z M218.4,70.1c-10.8,0.2-25.5-0.4-36.4-0.4c-7.9,0-14.4-1.8-14.9,4c16.5,0.6,38.5,0.6,55,0
			C222,71.4,219.5,71.4,218.4,70.1z M114.8,76.6c-6.8,0-16.5-2.1-16,4c18.1,1.2,42,1.1,59.3-0.4c0.6-0.8,0.8-1.9,0.7-3.2
			C147.5,76.4,127.7,76.6,114.8,76.6z M167,80.6c18.5,0.7,41.4,1.5,59.7,0c0.4-5.5-6.9-4-10.9-4c-15.1,0-34.5,0-48.4,0
			C165.9,77.1,167,79.5,167,80.6z M98.8,83.9c-1,0.4-0.7,2.2-0.7,3.6c12.9,1.3,34.3,0.8,48.8,0.7c4.1,0,11.1,1.5,10.5-4.3
			C139.7,83.3,116.5,83.3,98.8,83.9z M168.1,84.2c-0.2,1.5,0.6,2,0.7,3.2c10.3,1.2,31,0.7,45.2,0.7c4.2,0,12.7,0.9,13.5-1.4
			c1.5-4.5-7.8-3.2-11.3-3.2c-15.1,0-33,0-47,0C168.8,83.7,168.4,83.9,168.1,84.2z M98,91.1c0,1.1,0,2.2,0,3.2
			c12,1.3,32.6,0.7,46.3,0.7c4.2,0,10.7,1.1,10.9-4C137.4,89.5,113.9,90.5,98,91.1z M171.4,94.3c12,1.3,30.4,0.7,43.3,0.7
			c4.5,0,9.2,0.9,12.7-1.1c0-1,0-1.9,0-2.9c-15.8-1.1-37.1-0.6-56.1-0.7C169.4,91,171,93,171.4,94.3z M99.1,97.9
			c-0.7,5.2,5.4,4,9.1,4c13.1,0,31.9,0.6,42.6-0.7c0.1-1.5,1.4-1.8,1.1-3.6C136.8,97.7,114.8,97.2,99.1,97.9z M175,101.5
			c11.2,0.6,29.6,0.4,41.9,0.4c3.7,0,10.1,1.3,9.4-4c-15.6-1-36.5,0.3-52.1-0.7C172.1,98,174.4,100.3,175,101.5z M101.3,104.8
			c0,4.1,4.3,3.1,7.3,3.2c9,0.5,25.8,0.4,35.3,0.4c1.1-1.3,3.4-1.4,3.3-4C134,104.7,115.1,103.2,101.3,104.8z M178.3,104.4
			c-0.1,2.4,1.9,2.7,2.9,4c9.5,0,26.5,0.1,35.7-0.4c2.8-0.1,7.8,0.6,6.9-3.2C210,103.1,191.6,104.7,178.3,104.4z M111.9,112.4
			c4.7,1.1,18,2.4,21.5-0.7c-4.9-1.6-15.8-0.3-21.9-0.7C111.5,111.5,111.6,112,111.9,112.4z M192.1,112c2.4,1.7,11.6,1.8,16.1,1.4
			c2.1-0.2,5.2-0.3,5.5-2.2C208.5,111.1,196.1,109.8,192.1,112z"/>
	</g>
	<g display="inline">
		<g>
			<path fill="#FFFFFF" d="M-16.4,273.4v7H-20v-7H-16.4z M-11.2,273.4v7h-3.7v-7H-11.2z"/>
			<path fill="#FFFFFF" d="M0.5,273.4h3.6v14h-14v-14h3.6v10.3h1.5v-10.3H-1v10.3h1.5V273.4z"/>
			<path fill="#FFFFFF" d="M15.8,273.4h3.6v14h-3.6v-5.2H9.2v5.2H5.5v-14h3.6v5.1h6.7V273.4z"/>
			<path fill="#FFFFFF" d="M34.8,273.4v14h-14v-8.8h10.3V277H20.9v-3.6H34.8z M24.5,282.2v1.5h6.7v-1.5H24.5z"/>
			<path fill="#FFFFFF" d="M50.2,273.4v3.6H45v10.3h-3.7V277h-5.1v-3.6H50.2z"/>
			<path fill="#FFFFFF" d="M76,275.2l-5.9,5.9v6.2h-3.7v-6.3l-5.9-5.9l2.6-2.6l5.1,5.1l5.2-5.1L76,275.2z"/>
			<path fill="#FFFFFF" d="M91.3,273.4v14h-14v-14H91.3z M81,277v6.7h6.7V277H81z"/>
			<path fill="#FFFFFF" d="M103,273.4h3.6v14h-14v-14h3.6v10.3h6.7V273.4z"/>
			<path fill="#FFFFFF" d="M130.9,273.4v3.6h-10.3v6.7h10.3v3.6h-14v-14H130.9z"/>
			<path fill="#FFFFFF" d="M146.3,273.4v14h-14v-8.8h10.3V277h-10.3v-3.6H146.3z M136,282.2v1.5h6.7v-1.5H136z"/>
			<path fill="#FFFFFF" d="M161.7,272.8v14.6H158v-9.7l-6.7,2v7.7h-3.6v-14h3.6v2.5L161.7,272.8z"/>
			<path fill="#FFFFFF" d="M166.7,273.4v7h-3.6v-7H166.7z"/>
			<path fill="#FFFFFF" d="M182.1,273.4v3.6h-5.2v10.3h-3.7V277h-5.1v-3.6H182.1z"/>
			<path fill="#FFFFFF" d="M206.3,287.3h-14v-14h10.3v-2.6h3.6V287.3z M202.7,277H196v6.7h6.7V277z"/>
			<path fill="#FFFFFF" d="M221.7,273.4v14h-14v-14H221.7z M211.4,277v6.7h6.7V277H211.4z"/>
			<path fill="#FFFFFF" d="M246,272.2v15.1h-3.6v-7.4l-3.4,2.8l-3.3-2.8v7.4H232v-15.1l7,5.8L246,272.2z"/>
			<path fill="#FFFFFF" d="M261.3,273.4v3.6H251v10.4h-3.6v-14H261.3z"/>
			<path fill="#FFFFFF" d="M266.4,285.5c0,1-0.8,1.8-1.8,1.8c-1,0-1.8-0.8-1.8-1.8c0-1,0.8-1.8,1.8-1.8
				C265.6,283.7,266.4,284.5,266.4,285.5z"/>
			<path fill="#FFFFFF" d="M281.7,273.4v3.6h-10.3v6.7h10.3v3.6h-14v-14H281.7z"/>
			<path fill="#FFFFFF" d="M297.1,273.4v14h-14v-8.8h10.3V277h-10.3v-3.6H297.1z M286.8,282.2v1.5h6.7v-1.5H286.8z"/>
			<path fill="#FFFFFF" d="M312.5,272.8v14.6h-3.6v-9.7l-6.7,2v7.7h-3.6v-14h3.6v2.5L312.5,272.8z"/>
			<path fill="#FFFFFF" d="M327.8,287.3h-14v-14h10.3v-2.6h3.6V287.3z M324.2,277h-6.7v6.7h6.7V277z"/>
			<path fill="#FFFFFF" d="M339.6,273.4h3.6v14h-14v-14h3.6v10.3h6.7V273.4z"/>
			<path fill="#FFFFFF" d="M348.3,273.4v7h-3.6v-7H348.3z M353.4,273.4v7h-3.7v-7H353.4z"/>
		</g>
	</g>
</g>
<g id="ray_ban" display="none">
	<g display="inline">
		<path fill="#00AEEF" stroke="#00AEEF" d="M4.6-10.3c0-0.1,0-0.1,0.1-0.2c-1.2,0-2.5,0.3-3.7,0.7c0,0,0.1,0,0.2,0.1
			C2-9.8,3.2-10,4.6-10.3z"/>
		<path fill="#00AEEF" d="M368.9,165.6l2.5-1.9v-11c-4.2-3.2,0.4-6.6-0.4-11.9c2.2,2.5-3.9-0.5-2.2-0.2l-2.2-8.3
			c-0.3-2.1,5.3-0.5,3.6-3.5c-1.8,0.2-2.9-1.2-4.3-2.1c0.8-0.8-1.7-8.7,4.9-9.6c2.6-0.9-8.6,3.4-6.3,1.1c-0.1-3.9-2.3-4-2.4-7.9
			l0.9-0.1c1-2.6,7.2-7.5,3.5-4.8c-0.2,1.8,4-0.7,2,2c-3.8-1.8-4.9-6.3-5-10.2c1.1,1.3,2.8,1.2,4.7,1.7c-5-5-6.7-10.3-8.8-15.9
			c-0.9-0.4-1.4-0.7-0.2-0.6c0.1,0.2,0.2,0.4,0.2,0.6c1.3,0.6,3.7,1.4,4,2c3.7-7.2-5.7-14.7-0.4-20.7c-1.1,0.3-3.8,0-3.2,0
			c0.4-3.6,4.9-3.4,3.3-5.8c2.7-0.2-0.9-2.9-1.7-5.4c-1.4-0.9-0.1-0.8,0.8,0.1c-2.3-4.7-5.2-16.2-1.7-23.1c-1.8,0.2-6.5-4.8-6.3-6.5
			l4.1,0.7c0.8-0.5,1-1.3,1.1-2.1c-0.3-0.4-0.3-0.7,0.1-0.8c0-1,0-2,0.5-2.7c0-0.1,0-0.3,0-0.4c-1.2-2.5-2.7-4.9,0-7.3
			c-0.7,1,5.7,2.9,5.4,0c-0.7-5.1-2-1.4-3.4-5.6l-1.7-2.6c-3.8-0.2,0.1-4.1-3.4-2.9c2.1-1.3-2.2-7.2,4.1-6.7l5.3,0.7
			c-0.4-2-4.8-3.4-7.3-5c-1,0-2-0.1-3-0.4c0.7-0.4,1.7-0.7,2.2-1.2c-0.8-0.4-1.1-0.9-1-1.5c-2.1-0.6-3.1,0.6-5.5,1.5
			c0.4-0.6-2-1.7-4.7-3.1c-2.8,0-5.6,0-8.4,0c-0.6,1.6-0.1,3.3-0.4,4.5c-4.1-6.2-12.8,4-18-1.6c1.6-0.9,6.6-3,2.8-4.6
			c-0.3-0.5-0.7-0.9-1-1.2c-2,0.4-3.9,0.9-4.9,1.8c0,0.1-0.1,0.1-0.2,0.1c0,0,0.1-0.1,0.2-0.1c0-0.2-0.3-0.6-0.7-1
			c-2.4,1.5-5.1,3.4-8.4,1.9l1.6,5.1c-3-3.2-9.8,3-9.1-2.2c-2.2,1.8-7.9-1.7-7.1,3.3c-11-4.2-26.7,2.6-33.4-6.4
			c-1.6,0.8-5.5,0-4.7,2.6c2.6,2.8,3.6-2,4.6-0.1c-1.4,0.2-1.7,1.5-1.9,2.2c-2.9-1-5.3-1.4-3.9-4.2c-2.2,0.1-4.3,0.3-6.2,0.6
			c-2.4,2.4-4.9,5.6-10.3,4.5c0.4-2.1-0.3-2.9-3.1-2.5l-5.4,3.5c-4.6-0.6-4.4-2.8-4-5.4c-0.5,0.1-1.1,0.2-1.6,0.3
			c-1.2-0.5-1.2-1.6-1.4-2.7c-1.6,0.2-3.1,0.5-4.3,1.2l0.3,2l-0.9,0.1l0.1-1.7c-0.3,0.3-0.6,0.6-0.9,1l-2.1-2.3
			c-2.7,1-6.6,1.1-6.8,2.9c0.8,0.3,1.6,0.5,2.3,0.7c-0.5,0.5-1.1,0.7-1.7,1c0.1,0.2,0.2,0.4,0.4,0.6c-0.5-0.1-1-0.1-1.5-0.2
			c-1.2,0.3-2.5,0.7-3.7,1.7c0.8-3.4-5.4-2.4-8.1-2.8c-3-0.7-3.4,3.1-4.3,3c-0.1-1.8-5-0.3-2.6-2.8c1-0.6,2.4,1.7,4.1,0.2
			c-0.3-0.2-0.6-0.5-0.8-0.7c-1.6,0.1-3.1,0.3-4.1,0.7c1.1-0.7,0.9-1.8,0.6-2.8c-0.5,0.1-1,0.3-1.6,0.7c-3.1,1.7,0.8,6.8-5.1,4.6
			c1.6-0.9,1.8-2.2,3.1-3.5l-5.6-1.8l-0.2,3.1c-0.8-0.8-0.2-1.1-0.6-1.5c-1.7,3.3-8.5,1-9.8,4.7c-2.8,0.3-5.9-2.2-8.6-2.5l0.5-0.3
			c-3.3-1.8-7.6-0.6-10.4,1.5l0.1-0.7c-0.4-0.1-1-0.1-1.7,0l-1.3,1.1c-0.8,0.1-1.2-0.3-1.4-0.7c-1.4,0.3-2.9,0.9-3.9,1.7
			c-0.5-0.2-0.8-0.6-1.2-1c-0.2,0.2-0.4,0.4-0.7,0.6c-0.8-0.5-7.3,0.6-10.6-1.5c0,0.7,0.2,1.3,0.6,1.7c-6.1-1.6-12.7-3.8-18.9-4.3
			c-2.7,0.9-6,1.3-9,1.3c0.8-0.4,1.1-0.9,1.4-1.4c-0.3,0.3-0.8,0.6-1.6,0.8c-1.2-0.1-2.4-0.2-3.6-0.2c-4.6,1.8-9.4,2.8-14.4,3.9
			c-0.5,0.7-0.9,1.1-0.8,0.2c0.3-0.1,0.6-0.1,0.8-0.2c0.7-1,1.8-2.9,2.6-3.1c-0.2-0.1-0.4-0.1-0.6-0.2c-3.4,0.2-6.7,0.4-9.8,0.1
			c-5.8,1.1-11.4,3-16.2,0.4c0.4,0.9,0,3,0,2.5c-3-0.2-4-1.8-5.1-2.5c-0.8,0-1.5,0-2.2-0.1c0,0,0,0,0,0c0,0,0,0,0,0
			c-0.9-0.1-1.8-0.1-2.7-0.2c-1.2,0.5-2.8,1.3-4.2,1.6c-1.1,1.1-1,0.1,0.1-0.6c-6.1,1.8-20.8,4-29.7,1.3c0.2,1.4-6.1,5-8.4,4.9
			l0.9-3.2C7.6-9.1,6.7-9.3,5.6-9.3C5-9.1,4.6-9.1,4.5-9.4c-1.3,0-2.6,0-3.4-0.4c-0.2,0-0.3,0-0.5,0c-3.2,0.9-6.3,2.1-9.4,0
			c1.3,0.5,3.7-4.5,0-4.2c-6.5,0.6-1.9,1.5-7.2,2.6l-3.3,1.3c-0.2,3-5.3-0.1-3.7,2.6c-1.6-1.6-8.7,1.4-8.6-2.7
			c-1.7,0.3-3.3,0.5-5,0.7C-36.7-9.3-36.9-9.2-37-9c0,0.8-0.1,1.5-0.5,2.4C-38-7.2-38.3-8-39.1-8.4c-0.3,0.3-0.6,0.5-0.9,0.7
			c2.2,0.7,3.9,1.7,3.7,4.3c-3,1.7-0.9-4.7-4.8-3.9c-0.5,1.5,0.9,2.3,2,4.1c-0.4-0.2-1.2,0.5-2.1,1.5c0.7,1.1,1.3,2.1,0.8,3.2
			c2-3,7.3-0.5,8.3,1.5c-2.5,3.2-5-2.1-5.5,2.5c3,0.8,5.3,5,7.4,1.3c6.9,1.7-1.9,4.8,3.4,7.3c-4.2,1.3-9.4-3.1-12.4-1.2
			c0.3,0.5,0.5,1.1,0.8,1.7c3.3,1.1,5.4,10.1,11.2,7.9c-1.3,2-5,2.2-7.9,0.7c-2.9,2.8,8.5,6.8-0.7,7.8l4.8,1
			c-1.6,0.9-2.7,2.1-5.3,3.6c-0.1,2.5,6.5,8-0.7,7.8c0.4,0.4,0.5,2.4,1.4,3.7c0.2,0,0.3,0,0.5,0c-0.1,0.1-0.1,0.3-0.2,0.4
			c0.7,0.8,1.8,1.1,3.8,0.3c3-3.5-3.6-4.1,3.1-6c-5.5,2.5,0.7,5.1,2.6,7.1l-2.8,0.3c1,1.1,0.6,3.3,2.5,4.4c-1.3-0.3-2.6,0.1-3.2,0.9
			l4.2,1.3c2.1,4.9-7.5,1.2-6.2,6l-3.3-3.6c0.7,0.8-3.3,2.4-1.9,4.7c3.9,0.9,8.5,2.6,11.5,3.3c1.5,2.5-3.3,1.4-1.2,3.3l0.8,0.6
			c-0.3-0.2-0.6-0.4-0.8-0.6l-3.9-2.9c-1.3-0.5-6.4,2.3-6.3,6c1.3,2.3,6.9,5.9,9,2.2c0.1,1.8-2.3,4.3-5.1,2.9c1.3,4.1,4.2-0.5,6.6,3
			c-2.6,1.4-6.3,6-10,8.7l0,0c0,0.4-0.1,0.8-0.3,1.2c-2.7-0.3-3.7,0.2-3.3,2.4l2.9,2.6c2.1,1.2,4.3,2.2,7.1,1.7
			c2.2,6.7-19.4,4.2-6.9,11.2c1.6-0.9,5.6,0.9,6.3-0.2c-0.4-0.5-0.6-1.1-0.4-1.9c0.5,1,0.6,1.5,0.4,1.9c1.6,2,7,1.9,4.3,5.9
			c-3.3-3.6-8.1,3.9-12.9-1.4c2.7,0.3,2-2.9,1.3-3.8c-2.1,1.2-5,0.6-6.7,1.4c0.3,1,0.2,2.3,0.8,2.9l-1.1-1.2c-0.5,0.1-0.8,0.5-1,0.9
			c0.4,1.3,0.6,2.8,1.3,3.9c2.4-0.7,3.5-3.4,4.2-5c1.5,1,1.6,2.5,2.6,3.9c0.3,0.1,0.6,0.2,1,0.3c1.6,5.2-5.4,6.1,2.8,8.2
			c-0.7-3.3,4.1-4.1,7.2-4l1.9,3.8l-3-0.7c-2.2,6.1,5.5,1.8,4.7,7.7l-6,2.8c-5.2-1.4,2.3-8.6-6.1-7.6c-0.3,3.9,3.9,5.1,1.8,8.8
			c-0.7-0.8-0.9-1.9-1.7-2.7c0,0.2-0.3,0.4-0.8,0.6c-0.1,0.3-0.3,0.7-0.5,1.1c-0.2-0.2-0.5-0.4-0.7-0.6c-1.5,0.6-3.5,1.4-4.4,2.6
			l2.4,0.1c-1,0.6-1.4,0.2-1.9,0.4c2.8,0.8,2.5,3.4,3.3,5.4c1,0.1,1.9-0.7,3.9-0.7c1,6.2,4.2,8,4.7,12c-6.2-0.8-0.6,7.1-6.9,2.6
			c2.7-1.5,3.2-6.7,0.9-10.3c-0.7,1.8-2.7,3.6-3,5.2l-0.4-0.4c-2.4,2.6-0.8,5.9,1.9,8.1l-0.9-0.1c-0.3,1.4,0.3,4.7,2.7,6.4
			c-0.4,0.5-1,0.8-1.6,1.1c0.9,1.7,1.6,3.6,1.7,5.1l-2.9-4.7c-4.5,1.3-11.3,0.5-7.3,3.5c0.1,3.6,7.4,5.6,10,4.2
			c-0.4,1-0.6,2.1-0.7,3.2c1.9-0.9,3.9-1.1,5.5-0.2c-0.5,2.1-3.2-0.1-4.7,0.8c1.8,1.2,0.6,2.2-0.6,3.1c0.7,4.4,2.1,8.9-2,12.8
			c1.6,0.9,2.7,0.3,3.6,2.3c-1.6,9.4,4.8,19.9-3.1,27.4c-1.7-2.7-4-0.2-6.3-0.1c3.6,2.3-3.7,2.7,2.4,3.5c3.6-0.2,5.4,0,6.9-2.7
			c2,5.6,2,14.2-1.4,17.3c1.7-1.6,2.8-0.3,3.9,0.9c-5.8-0.4-6.7,3.7-4.6,6.9l3.5,0.4l-3.6,2c1.1,1.2,7.4,1.3,4,4.4
			c-1.4,0.2-2.8,0.3-3.8,0.9c2.9,3.2,7.8,7.8,4.8,11.3l-5.2,2.9c0.6,1.5,3.7,4,5.2,1.4c-3.1,6-3.5,21.2-8,23.2
			c7.4,7,10,16.2,10.6,25.2c1.5-2.8,1.7-6.4,7-6.1c2.2,2.4-6.5,0.6-5,3.9c3.8,3.3,7.7-1.8,11.1-0.7c-3.8-1.5-0.6-5.7,1.9-6.4
			c4.1,1.9-2.7,3.9,3.2,4.3c1-2.4,6.4-4.1,1.7-5.8c2.1-5.4,6.1,1.5,9.3-2.7c1.9,3.8-6.1,8.7,0.4,10.6c-1-3.6,8-4.9,4.6-10.3
			c2.5,1,2.8,3.9,1,6.1c3.6,2.2,8.8-6.6,10,0.6l1.2-3.7c1.1,1.2,2.8,2.1,4.6,4.1c3.2,0.1,10.3-5,10,0.6c1-0.6,8.3-0.3,5.5-4.2
			c-4.5-2.4-5.2,2.8-7.7-2.4c3.2,4.3,6.5-0.6,9.1-2l0.4,2.2c1.4-0.7,4.3-0.5,5.6-2c-0.4,1,0.2,2.1,1.2,2.5l1.6-3.3
			c6.3-1.7,1.5,5.8,7.6,4.8l-4.7,2.6c1-0.6,3.1,2.5,6.1,1.5c1.1-3,3.3-6.6,4.3-9c3.2-1.2,1.9,2.6,4.2,0.9l0.8-0.6
			c-0.3,0.3-0.5,0.5-0.8,0.6l-3.7,3c-0.7,1,3,5,7.6,4.9c3-1,7.6-5.4,2.9-7c2.3-0.1,5.6,1.8,3.7,4c5.3-1-0.7-3.2,3.8-5.1
			c1.9,2,7.7,4.9,11.1,7.8l-4.7,5l3.1,0c-3.2,3.2-0.1,3.3,0.3,5.2c2-0.1,3.9-0.2,6-0.3c-5.2-6.4,7.4-9,5.6-15
			c8.6-1.7,5.4,15.1,14.4,5.4c-1.1-1.3,1.1-4.3-0.3-4.9c-0.6,0.3-1.4,0.4-2.4,0.3c1.2-0.4,2-0.5,2.4-0.3c2.6-1.3,2.5-5.4,7.6-3.4
			c-4.7,2.6,5,6.3-1.7,10c0.4-2.1-3.8-1.6-4.8-1c2.2,2.4-0.5,6.3,5,6.3c3.4-0.6,7.9-0.7,7.3-4c-0.1-3.6-5.1,0.4-3-3.2
			c6.7-1.2,7.8,4.2,10.6-2.1c-4.2,0.5-5.3-3.2-5.2-5.6l4.9-1.5l-0.9,2.4c7.9,1.7,2.3-4.3,9.9-3.7l3.6,4.7c-1.8,4-11.1-1.8-9.7,4.8
			c5,0.3,6.6-3.1,11.3-1.4c-1,0.6-2.5,0.7-3.5,1.3c1.8,0.2,3.5,8.9,10.6,3.8c3.6-2,1-2.3,1.1-4.8c8-0.7,10.3-3.2,15.5-3.6
			c-1.1,4.8,9.1,0.5,3.4,5.4c-2.6-2.8-14.1-2.5-16.9,2c2.9,5.7-6.3-0.8-7.9,5c6.4,0.1,6.1,5.7,7.1,9.4c0.1,0,0.3,0,0.4,0
			c0.7-0.2,1.3-0.4,2-0.6c0.8-0.4,1.6-1,2.1-1.3c0.8-3.5-1.6-3.4-1.7-6.9c7.1,0.9,14-1,17.9-4.3c2.4,1.7,1.6,5.1-1.2,5.5
			c8.5-1,17.5-0.5,25.6,0.5c-4.4-4.8,5.2-2.4,5.9-4.5c-0.1-0.4-0.2-0.8-0.3-1.1c-0.1-0.1-0.1-0.2-0.2-0.4c-4.3-1.3-8-5.3-5.6-7.8
			c2.7,0.4-0.1,2.5,1,3.7c2.3-2,3.8,0.7,5.6,1.5c0.6-0.6,1.6-12.4,3.1-12.8c-1.2,1.7-2.1,13.2-3.1,12.8c-0.9,0.8-1,1.9-0.8,3
			c0.3,0.5,0.4,0.8,0.3,1.1c0.5,1.8,1.3,3.8,0.7,5.7c4.1-1.8,2.1-10.7,2.8-9.2c0.2-0.1,0.5-0.1,0.7-0.2c-0.1,0.2-0.3,0.4-0.5,0.6
			c0.4,0.4,1,0.6,2.2,0.6c5.6-2.4,12.4-4.4,18.6-5.3c7.8,4.2,19.7,0.1,26.6-0.1c0.5,0.3,0.9,0.7,1.2,1.1c4.1-0.2,8.2-0.5,12.1-0.9
			c-0.8,1.3-1.5,3.8-0.4,5.3c1-4,7.2-5,12.7-5.8c2.4,4.1,9.3-3.7,15.6-1.5l-0.5,0.9c4.7-4.3,7,2.5,10.8-2.7l3,3.2
			c2.1-5.8,6.8,3,10.7,0.1l-0.1-1.2c3.7-1.4,5.6,1.5,9,0.5l0.3,0.7c7.9-1.5,12.6,1.7,12.4-2.8c2.8,3.6-7.7,1.7-3.3,6.9
			c6.5-1.2,13.1-2,19.7-2.5l-0.7-0.6l-0.1-2.4c-0.5-10.4-0.2-20.7-0.3-31c2.3-2.3,3-3.8,5.2-4.3c-1.2-2-1.1-7.7-4-9.6
			c0.1,0.7,3-1.3,3.3-2.4c2.2-3.7-6.4-4.1-3.8-8.2c1.5,1.6,3.4,2.2,5.6,1.6c-4.5-3.5-3.8-8.2-5.3-12.3c1,0.6,1.6,1.6,3.4,1.5
			c-5.1-4.5,1.1-8.2-2.2-12.2l3.3,1.5c4.1-6.4-7-1.9-4.6-7.4c1.1,1.3,2.4,0.9,3.7,1.1c-6.1-5.1-4.1-13.5-6.1-18.6
			c0.5,0.3,1.4,0.2,1.4,0.2c-0.8-5.6,1.1-11.4-1.5-17.6c1.5-2.2,8.2,0.7,6.9-5.2c-6.7,0.2,7.2-10-0.4-6.5c1.1-5,3.6-13,1.3-16.4
			C372.7,166.2,368.4,161.4,368.9,165.6z M-31.1,72c0.2-0.7,0.7-1-0.1-1.8c1.2-1.3,3.1,0.1,3.4,1.1L-31.1,72z M-27.1,93.6
			c-0.2-1.1-2.4-3.5,0.5-4.6C-28.7,90.2-23.3,94.5-27.1,93.6z M-34.8,140c-0.1-1.5,1-2.3,2.2-3.1c0.1-0.3,0.3-0.4,0.8-0.4
			c-0.3,0.1-0.5,0.3-0.8,0.4C-32.9,138-31.3,140.5-34.8,140z M-28.8,141.6c2.2-1.8,3.4-1.3,3.4,1.2
			C-26.8,142.9-27.5,142.1-28.8,141.6z M67.4,310.9c-1.6-0.9,0.1-2.4,1.5-2.6l0.8,2.6C68.8,310.7,68.4,310.4,67.4,310.9z
			 M97.4,307.8c-1.4,0.2-4.5,1.9-5.9-0.4C93,308.9,98.5,304.7,97.4,307.8z M99.2-8.4c3-1.3,2.1,1.9,2.6,2.2
			C99.1-5.9,102.8-8.7,99.2-8.4z M157,313.7c-1.9,0-3-0.8-4-1.8c-0.3-0.1-0.6-0.2-0.6-0.6c0.2,0.2,0.4,0.4,0.6,0.6
			C154.4,312.3,157.6,311,157,313.7z M159,309.1c-2.4-1.7-1.7-2.7,1.5-2.6C160.7,307.5,159.6,308.1,159,309.1z M186.4,317.5
			c0.4-2,6.8-3.7,10.5-3.9L186.4,317.5z M215.9,307.5c-0.2,0.7-1.6-0.9-2-1.3c1.4-0.2,2.8-2.1,3.9-0.9
			C216.4,305.5,216.6,306.6,215.9,307.5z M311.8-11.2l0.4-2l2.6,1L311.8-11.2z M355.6,97c-0.3-2.1,3.3,0.8,2.9-2
			C360.1,97.4,356,96.7,355.6,97z M367,187.4l-5.3,0.5l-0.1-0.7L367,187.4z"/>
		<path fill="#00AEEF" stroke="#00AEEF" d="M361.8,18c-1.1-0.9-1.5-0.6-1.5,0.3c0,0.1,0.1,0.2,0.1,0.2C360.7,18.2,361.1,18,361.8,18
			z"/>
		<path fill="#00AEEF" stroke="#00AEEF" d="M360.9,21.4c0.1,0,0.2,0,0.3,0c0-1-0.4-1.9-0.9-2.9c0,0-0.1,0.1-0.1,0.1
			C360.4,19.4,360.6,20.3,360.9,21.4z"/>
		<path fill="#00AEEF" stroke="#00AEEF" d="M-39.2,118c0.4-0.2,0.6-0.5,0.7-0.7C-38.8,117.4-39,117.7-39.2,118z"/>
		<path fill="#00AEEF" stroke="#00AEEF" d="M362.2,25c0.2,0.7,0.5,1.3,0.6,1.9C363.1,26.4,362.7,25.8,362.2,25z"/>
		<path fill="#00AEEF" stroke="#00AEEF" d="M0.2-10.9c-1.1,0.9-0.7,1.2,0.4,1.2c0.1,0,0.2-0.1,0.3-0.1C0.6-10.1,0.3-10.4,0.2-10.9z"
			/>
	</g>
	<g display="inline">
		<path d="M92.5,228.1v25.1h-6v-12.3l-5.6,4.6l-5.5-4.6v12.3h-6v-25.1l11.6,9.6L92.5,228.1z"/>
		<path d="M118.1,230v6h-17.1v17.2h-6V230H118.1z"/>
		<path d="M126.5,250.2c0,1.6-1.3,3-3,3c-1.6,0-3-1.4-3-3c0-1.7,1.4-3,3-3C125.1,247.2,126.5,248.5,126.5,250.2z"/>
		<path d="M152,230v6h-17.1v11.1H152v6h-23.2V230H152z"/>
		<path d="M177.5,230v23.2h-23.2v-14.6h17.1v-2.5h-17.1v-6H177.5z M160.4,244.6v2.5h11.1v-2.5H160.4z"/>
		<path d="M203,229v24.2h-6v-16.1l-11.1,3.3v12.8h-6V230h6v4.1L203,229z"/>
		<path d="M228.6,253.2h-23.2V230h17.1v-4.3h6V253.2z M222.5,236.1h-11.1v11.1h11.1V236.1z"/>
		<path d="M248.1,230h6v23.2h-23.2V230h6v17.1h11.1V230z"/>
	</g>
	<g display="inline">
		<g>
			<path d="M299.6,79.8c-0.5,0-1-0.3-1.2-0.7c-0.4-0.8,0.2-1.7,1.3-2.8c5-5.4-0.2-19.8-0.2-19.9c-0.2-0.4,0-0.9,0.4-1.2l6.9-4.5
				c0.2-0.1,0.4-0.2,0.5-0.2c0.3,0,0.6,0.1,0.7,0.3c0.1,0.2,3.6,4.2,4.4,13.3c0.3,3.8-2.2,7.4-4.4,9.7
				C305.3,76.9,301.2,79.8,299.6,79.8L299.6,79.8z"/>
			<path fill="#00AEEF" d="M307.4,51.5c0,0,3.4,3.8,4.1,12.7c0.6,7-10,14.5-11.8,14.5c-0.5,0-0.4-0.5,0.8-1.8c5.5-5.9,0-21,0-21
				L307.4,51.5 M307.4,49.5c-0.4,0-0.8,0.1-1.1,0.3l-6.9,4.5c-0.8,0.5-1.1,1.5-0.8,2.4c1.4,3.9,4.2,14.8,0.4,18.9
				c-0.8,0.8-2.1,2.3-1.4,3.8c0.4,0.8,1.2,1.3,2.1,1.3c2.1,0,6.5-3.2,9.2-6.2c2.3-2.5,5-6.3,4.6-10.5c-0.8-9.5-4.5-13.7-4.6-13.9
				C308.5,49.7,307.9,49.5,307.4,49.5L307.4,49.5z"/>
		</g>
		<g>
			<path d="M291.8,117.4c-10.2,0-20.5-2.1-20.5-6.1c0-4,10.3-6.1,20.5-6.1c10.2,0,20.5,2.1,20.5,6.1
				C312.3,115.2,302,117.4,291.8,117.4L291.8,117.4z"/>
			<path fill="#00AEEF" d="M291.8,106.1c10.8,0,19.5,2.3,19.5,5.1c0,2.8-8.7,5.1-19.5,5.1c-10.8,0-19.5-2.3-19.5-5.1
				C272.3,108.4,281,106.1,291.8,106.1 M291.8,104.1c-2.2,0-21.5,0.2-21.5,7.1c0,6.9,19.3,7.1,21.5,7.1c2.2,0,21.5-0.2,21.5-7.1
				C313.3,104.3,294,104.1,291.8,104.1L291.8,104.1z"/>
		</g>
		<g>
			<path d="M234.6,209.5c-17.7,0-32.5-4-32.7-4c-0.4-0.1-0.7-0.5-0.7-1V177c0-0.3,0.1-0.6,0.4-0.8c0.2-0.2,0.4-0.2,0.6-0.2
				c0.1,0,0.1,0,0.2,0c0.1,0,7.9,1.3,18.7,1.3c10,0,24.6-1.2,37.6-6.7c24.6-10.4,22.5-62.7,22.4-63.3c0-0.3,0.1-0.5,0.3-0.7
				c0.2-0.2,0.4-0.3,0.7-0.3h20.1c0.5,0,0.9,0.3,1,0.8c0.1,0.4,8.1,44.9-15.4,79.7C275.2,205.6,251.9,209.5,234.6,209.5
				C234.6,209.5,234.6,209.5,234.6,209.5z"/>
			<path fill="#00AEEF" d="M302.2,107.4c0,0,8.3,44.1-15.2,78.9c-12,17.8-33.9,22.1-52.4,22.1c-17.7,0-32.4-4-32.4-4V177
				c0,0,7.8,1.3,18.9,1.3c11,0,25.3-1.3,38-6.7c25.5-10.8,23-64.2,23-64.2H302.2 M302.2,105.4h-20.1c-0.5,0-1.1,0.2-1.4,0.6
				c-0.4,0.4-0.6,0.9-0.6,1.5c0,0.5,2.1,52.2-21.8,62.3c-12.9,5.4-27.3,6.6-37.2,6.6c-10.7,0-18.5-1.3-18.5-1.3c-0.1,0-0.2,0-0.3,0
				c-0.5,0-0.9,0.2-1.3,0.5c-0.5,0.4-0.7,0.9-0.7,1.5v27.5c0,0.9,0.6,1.7,1.5,1.9c0.6,0.2,15.1,4.1,32.9,4.1c25.2,0,43.9-8,54.1-23
				c12.4-18.4,16-39.2,16.8-53.5c0.9-15.5-1.2-26.4-1.3-26.9C304,106.1,303.2,105.4,302.2,105.4L302.2,105.4z"/>
		</g>
		<g>
			<path d="M305.7,75.4c-0.5,0-1-0.3-1.2-0.7c-0.4-0.8,0.2-1.7,1.3-2.8c5-5.4-0.2-19.8-0.2-19.9c-0.2-0.4,0-0.9,0.4-1.2l6.9-4.5
				c0.2-0.1,0.4-0.2,0.5-0.2c0.3,0,0.6,0.1,0.7,0.3c0.1,0.2,3.6,4.2,4.4,13.3c0.3,3.8-2.2,7.4-4.4,9.7
				C311.3,72.6,307.3,75.4,305.7,75.4L305.7,75.4z"/>
			<path fill="#00AEEF" d="M313.4,47.1c0,0,3.4,3.8,4.1,12.7c0.6,7-10,14.5-11.9,14.5c-0.5,0-0.4-0.5,0.8-1.8c5.5-5.9,0-21,0-21
				L313.4,47.1 M313.4,45.1c-0.4,0-0.8,0.1-1.1,0.3l-6.9,4.5c-0.8,0.5-1.1,1.5-0.8,2.4c1.4,3.9,4.2,14.8,0.4,18.9
				c-0.8,0.8-2.1,2.3-1.4,3.8c0.4,0.8,1.2,1.3,2.1,1.3c2.1,0,6.5-3.2,9.2-6.2c2.3-2.5,5-6.3,4.6-10.5c-0.8-9.5-4.5-13.7-4.6-13.9
				C314.5,45.3,314,45.1,313.4,45.1L313.4,45.1z"/>
		</g>
		<g>
			<path d="M290,94.6c-0.6,0-1-0.4-1-1v-9.3c-7.7-0.5-15.4-6.6-15.4-17.5c0-10.8,5.6-21.4,5.8-21.8c0.2-0.3,0.5-0.5,0.8-0.5
				c0,0,0.1,0,0.1,0c0.3,0,0.6,0.1,0.8,0.4c0,0,2.7,3.6,7.6,6.4c0.4,0.2,0.6,0.7,0.5,1.2c-1.9,6.5-1.5,12.3,1.2,15.8
				c1.5,2,3.6,3.1,6,3.1c7.3,0,12.2-1.9,14.6-5.7c4.2-6.5-0.5-16.7-0.5-16.8c-0.2-0.5,0-1,0.4-1.3l5.1-2.9c0.2-0.1,0.3-0.1,0.5-0.1
				c0.2,0,0.4,0.1,0.5,0.2c0.3,0.2,7.8,5.2,7.8,18.5c0,18.3-21.2,20.8-26.1,21.2v9.3c0,0.6-0.4,1-1,1H290z"/>
			<path fill="#00AEEF" d="M316.5,45.4c0,0,7.4,4.8,7.4,17.7c0,19.9-26.1,20.2-26.1,20.2v10.3H290V83.3c-7.7,0-15.4-5.9-15.4-16.5
				c0-10.7,5.7-21.3,5.7-21.3s2.8,3.7,7.9,6.6c-3.7,12.5,1.5,20.2,8.1,20.2c26.2,0,15-23.9,15-23.9L316.5,45.4 M316.5,43.4
				c-0.3,0-0.7,0.1-1,0.3l-5.1,2.9c-0.9,0.5-1.3,1.6-0.8,2.6c0,0.1,4.5,9.8,0.6,15.9c-2.2,3.5-6.9,5.2-13.8,5.2c-2,0-3.9-1-5.2-2.7
				c-2.5-3.3-2.8-8.7-1-14.9c0.3-0.9-0.1-1.8-0.9-2.3c-4.7-2.7-7.3-6.1-7.3-6.1c-0.4-0.5-1-0.8-1.6-0.8c-0.1,0-0.1,0-0.2,0
				c-0.7,0.1-1.3,0.4-1.6,1.1c-0.2,0.5-5.9,11.2-5.9,22.3c0,11.1,7.6,17.5,15.4,18.4v8.4c0,1.1,0.9,2,2,2h7.7c1.1,0,2-0.9,2-2v-8.4
				c2.5-0.2,7.1-0.9,11.8-2.7c9.4-3.7,14.3-10.4,14.3-19.4c0-13.8-7.9-19.1-8.3-19.3C317.2,43.5,316.8,43.4,316.5,43.4L316.5,43.4z"
				/>
		</g>
		<g>
			<path d="M311.3,112.2c-0.4,0-0.8-0.2-0.9-0.6c-0.1-0.1-2.4-4.5-18.6-4.5c-12.2,0-14.7,0.4-18.8,4.8c-0.2,0.2-0.5,0.3-0.7,0.3
				c-0.1,0-0.2,0-0.4-0.1c-0.4-0.1-0.6-0.5-0.6-0.9v-15c0-4,10.3-6.1,20.5-6.1c10.2,0,20.5,2.1,20.5,6.1v15c0,0.5-0.3,0.9-0.8,1
				C311.4,112.2,311.4,112.2,311.3,112.2L311.3,112.2z"/>
			<path fill="#00AEEF" d="M291.8,91c10.8,0,19.5,2.3,19.5,5.1v15c0,0-1.9-5.1-19.5-5.1c-12.3,0-15.1,0.4-19.5,5.1c0-7.7,0-15,0-15
				C272.3,93.3,281,91,291.8,91 M291.8,89c-2.2,0-21.5,0.2-21.5,7.1v15c0,0.8,0.5,1.6,1.3,1.9c0.2,0.1,0.5,0.1,0.7,0.1
				c0.6,0,1.1-0.2,1.5-0.7c3.7-4,5.5-4.5,18-4.5c14.2,0,17.3,3.4,17.7,3.9c0.2,0.9,1,1.4,1.9,1.4c0.1,0,0.2,0,0.2,0
				c1-0.1,1.8-1.1,1.8-2.1v-15C313.3,89.2,294,89,291.8,89L291.8,89z"/>
		</g>
		<path fill="none" stroke="#00AEEF" stroke-width="2" stroke-linecap="round" stroke-linejoin="round" d="M280.2,135.2
			c0,0,14.3,7.4,22.7,5.5"/>
		<path fill="none" stroke="#00AEEF" stroke-width="2" stroke-linecap="round" stroke-linejoin="round" d="M274.5,154.8
			c0,0,9.3,10.8,21.8,13.7"/>
		<path fill="none" stroke="#00AEEF" stroke-width="2" stroke-linecap="round" stroke-linejoin="round" d="M264.3,168.5
			c0,0,10.5,20.8,15.9,25.7"/>
		<path fill="none" stroke="#00AEEF" stroke-width="2" stroke-linecap="round" stroke-linejoin="round" d="M241.8,176.6
			c0,0,2.5,22.1,1.8,31.5"/>
		<path fill="none" stroke="#00AEEF" stroke-width="2" stroke-linecap="round" stroke-linejoin="round" d="M218.3,178.3
			c0,0,1.8,22,0,29.1"/>
	</g>
	<g display="inline">
		<g>
			<path d="M26.2,79.8c-1.6,0-5.6-2.8-8.5-5.9c-2.2-2.3-4.7-5.9-4.4-9.7c0.8-9.2,4.2-13.2,4.4-13.3c0.2-0.2,0.5-0.3,0.7-0.3
				c0.2,0,0.4,0.1,0.5,0.2l6.9,4.5c0.4,0.3,0.6,0.7,0.4,1.2c-0.1,0.1-5.2,14.6-0.2,19.9c1,1.1,1.6,2,1.3,2.8
				C27.2,79.5,26.7,79.8,26.2,79.8L26.2,79.8z"/>
			<path fill="#00AEEF" d="M18.4,51.5l6.9,4.5c0,0-5.5,15.1,0,21c1.2,1.3,1.3,1.8,0.8,1.8c-1.8,0-12.4-7.5-11.9-14.5
				C15.1,55.3,18.4,51.5,18.4,51.5 M18.4,49.5c-0.6,0-1.1,0.2-1.5,0.7c-0.2,0.2-3.8,4.4-4.6,13.9c-0.3,4.1,2.3,8,4.6,10.5
				c2.8,3,7.1,6.2,9.2,6.2c0.9,0,1.7-0.5,2.1-1.3c0.7-1.6-0.7-3-1.4-3.8c-3.8-4.1-1-15,0.4-18.9c0.3-0.9,0-1.9-0.8-2.4l-6.9-4.5
				C19.2,49.6,18.8,49.5,18.4,49.5L18.4,49.5z"/>
		</g>
		<g>
			<path d="M34,117.4c-10.2,0-20.5-2.1-20.5-6.1c0-4,10.3-6.1,20.5-6.1c10.2,0,20.5,2.1,20.5,6.1C54.5,115.2,44.2,117.4,34,117.4
				L34,117.4z"/>
			<path fill="#00AEEF" d="M34,106.1c10.8,0,19.5,2.3,19.5,5.1c0,2.8-8.7,5.1-19.5,5.1c-10.8,0-19.5-2.3-19.5-5.1
				C14.5,108.4,23.2,106.1,34,106.1 M34,104.1c-2.2,0-21.5,0.2-21.5,7.1c0,6.9,19.3,7.1,21.5,7.1c2.2,0,21.5-0.2,21.5-7.1
				C55.5,104.3,36.2,104.1,34,104.1L34,104.1z"/>
		</g>
		<g>
			<path d="M91.2,209.5c-17.3,0-40.6-3.9-53.3-22.6c-23.5-34.8-15.4-79.2-15.4-79.7c0.1-0.5,0.5-0.8,1-0.8h20.1
				c0.3,0,0.5,0.1,0.7,0.3c0.2,0.2,0.3,0.5,0.3,0.7c0,0.5-2.1,52.9,22.4,63.3c13,5.5,27.6,6.7,37.6,6.7c10.8,0,18.6-1.3,18.7-1.3
				c0.1,0,0.1,0,0.2,0c0.2,0,0.5,0.1,0.6,0.2c0.2,0.2,0.4,0.5,0.4,0.8v27.5c0,0.5-0.3,0.8-0.7,1C123.7,205.5,108.9,209.5,91.2,209.5
				L91.2,209.5z"/>
			<path fill="#00AEEF" d="M43.7,107.4c0,0-2.5,53.4,23,64.2c12.7,5.4,27,6.7,38,6.7c11,0,18.9-1.3,18.9-1.3v27.5c0,0-14.7,4-32.4,4
				c-18.5,0-40.4-4.3-52.4-22.1c-23.5-34.8-15.2-78.9-15.2-78.9H43.7 M43.7,105.4H23.6c-1,0-1.8,0.7-2,1.6
				c-0.1,0.5-2.1,11.4-1.3,26.9c0.8,14.3,4.4,35.2,16.8,53.5c10.2,15.1,28.9,23,54.1,23c17.8,0,32.3-3.9,32.9-4.1
				c0.9-0.2,1.5-1,1.5-1.9V177c0-0.6-0.3-1.1-0.7-1.5c-0.4-0.3-0.8-0.5-1.3-0.5c-0.1,0-0.2,0-0.3,0c-0.1,0-7.8,1.3-18.5,1.3
				c-9.9,0-24.4-1.1-37.2-6.6c-23.9-10.1-21.9-61.8-21.8-62.3c0-0.5-0.2-1.1-0.6-1.5C44.7,105.6,44.2,105.4,43.7,105.4L43.7,105.4z"
				/>
		</g>
		<g>
			<path d="M20.1,75.4c-1.6,0-5.6-2.8-8.5-5.9c-2.2-2.3-4.7-5.9-4.4-9.7c0.8-9.2,4.2-13.2,4.4-13.3c0.2-0.2,0.5-0.3,0.7-0.3
				c0.2,0,0.4,0.1,0.5,0.2l6.9,4.5c0.4,0.3,0.6,0.7,0.4,1.2C20.2,52.1,15,66.5,20,71.9c1,1.1,1.6,2,1.3,2.8
				C21.1,75.1,20.6,75.4,20.1,75.4L20.1,75.4z"/>
			<path fill="#00AEEF" d="M12.4,47.1l6.9,4.5c0,0-5.5,15.1,0,21c1.2,1.3,1.3,1.8,0.8,1.8c-1.8,0-12.4-7.5-11.9-14.5
				C9,50.9,12.4,47.1,12.4,47.1 M12.4,45.1c-0.6,0-1.1,0.2-1.5,0.7c-0.2,0.2-3.8,4.4-4.6,13.9c-0.3,4.1,2.3,8,4.6,10.5
				c2.8,3,7.1,6.2,9.2,6.2c0.9,0,1.7-0.5,2.1-1.3c0.7-1.6-0.7-3-1.4-3.8c-3.8-4.1-1-15,0.4-18.9c0.3-0.9,0-1.9-0.8-2.4l-6.9-4.5
				C13.1,45.2,12.7,45.1,12.4,45.1L12.4,45.1z"/>
		</g>
		<g>
			<path d="M28.1,94.6c-0.6,0-1-0.4-1-1v-9.3C22.2,83.9,1,81.4,1,63c0-13.3,7.5-18.3,7.8-18.5c0.2-0.1,0.4-0.2,0.5-0.2
				c0.2,0,0.3,0,0.5,0.1l5.1,2.9c0.5,0.3,0.6,0.8,0.4,1.3c0,0.1-4.7,10.3-0.5,16.8c2.4,3.8,7.3,5.7,14.6,5.7c2.4,0,4.5-1.1,6-3.1
				c2.7-3.5,3.1-9.3,1.2-15.8c-0.1-0.4,0.1-0.9,0.5-1.2c4.9-2.8,7.6-6.3,7.6-6.4c0.2-0.3,0.5-0.4,0.8-0.4c0,0,0.1,0,0.1,0
				c0.3,0,0.6,0.2,0.8,0.5c0.2,0.4,5.8,11,5.8,21.8c0,10.9-7.8,17-15.4,17.5v9.3c0,0.6-0.4,1-1,1H28.1z"/>
			<path fill="#00AEEF" d="M45.6,45.4c0,0,5.7,10.7,5.7,21.3c0,10.7-7.7,16.5-15.4,16.5v10.3h-7.7V83.3C28.1,83.3,2,82.9,2,63
				c0-12.9,7.4-17.7,7.4-17.7l5.1,2.9c0,0-11.1,23.9,15,23.9c6.7,0,11.8-7.7,8.1-20.2C42.8,49.1,45.6,45.4,45.6,45.4 M45.6,43.4
				c-0.6,0-1.2,0.3-1.6,0.8l0,0c0,0-2.6,3.4-7.3,6.1c-0.8,0.5-1.2,1.4-0.9,2.3c1.8,6.2,1.5,11.6-1,14.9c-1.3,1.8-3.2,2.7-5.2,2.7
				c-7,0-11.6-1.8-13.8-5.2c-3.9-6.1,0.5-15.7,0.6-15.8c0.4-0.9,0.1-2.1-0.8-2.6l-5.1-2.9c-0.3-0.2-0.7-0.3-1-0.3
				c-0.4,0-0.8,0.1-1.1,0.3C7.9,43.9,0,49.2,0,63c0,9,5,15.7,14.3,19.4c4.7,1.8,9.3,2.5,11.8,2.7v8.4c0,1.1,0.9,2,2,2h7.7
				c1.1,0,2-0.9,2-2v-8.4c7.8-0.9,15.4-7.3,15.4-18.4c0-11-5.7-21.8-5.9-22.3c-0.3-0.6-0.9-1-1.6-1.1C45.7,43.4,45.6,43.4,45.6,43.4
				L45.6,43.4z"/>
		</g>
		<g>
			<path d="M53.5,112.2c-0.3,0-0.5-0.1-0.7-0.3c-4.1-4.5-6.6-4.8-18.8-4.8c-16.3,0-18.6,4.5-18.6,4.5c-0.2,0.4-0.5,0.6-0.9,0.6
				c-0.1,0-0.1,0-0.2,0c-0.5-0.1-0.8-0.5-0.8-1v-15c0-4,10.3-6.1,20.5-6.1c10.2,0,20.5,2.1,20.5,6.1v15c0,0.4-0.3,0.8-0.6,0.9
				C53.8,112.2,53.7,112.2,53.5,112.2L53.5,112.2z"/>
			<path fill="#00AEEF" d="M34,91c10.8,0,19.5,2.3,19.5,5.1c0,0,0,7.3,0,15c-4.4-4.8-7.2-5.1-19.5-5.1c-17.6,0-19.5,5.1-19.5,5.1
				v-15C14.5,93.3,23.2,91,34,91 M34,89c-2.2,0-21.5,0.2-21.5,7.1v15c0,1,0.7,2,1.8,2.1c0.1,0,0.2,0,0.2,0c0.9,0,1.6-0.5,1.9-1.4
				c0.4-0.5,3.4-3.9,17.7-3.9c12.5,0,14.3,0.5,18,4.5c0.4,0.4,0.9,0.7,1.5,0.7c0.2,0,0.5,0,0.7-0.1c0.8-0.3,1.3-1,1.3-1.9v-15
				C55.5,89.2,36.2,89,34,89L34,89z"/>
		</g>
		<path fill="none" stroke="#00AEEF" stroke-width="2" stroke-linecap="round" stroke-linejoin="round" d="M45.6,135.2
			c0,0-14.3,7.4-22.7,5.5"/>
		<path fill="none" stroke="#00AEEF" stroke-width="2" stroke-linecap="round" stroke-linejoin="round" d="M51.3,154.8
			c0,0-9.3,10.8-21.8,13.7"/>
		<path fill="none" stroke="#00AEEF" stroke-width="2" stroke-linecap="round" stroke-linejoin="round" d="M61.5,168.5
			c0,0-10.5,20.8-15.9,25.7"/>
		<path fill="none" stroke="#00AEEF" stroke-width="2" stroke-linecap="round" stroke-linejoin="round" d="M84,176.6
			c0,0-2.5,22.1-1.8,31.5"/>
		<path fill="none" stroke="#00AEEF" stroke-width="2" stroke-linecap="round" stroke-linejoin="round" d="M107.6,178.3
			c0,0-1.8,22,0,29.1"/>
	</g>
	<line display="inline" fill="none" stroke="#000000" stroke-width="4" x1="82.4" y1="116.4" x2="82.4" y2="19.2"/>
	<path display="inline" d="M113.4,116.3c0,8.3-9.9,15.1-22.1,15.1c-12.2,0-22.1-6.8-22.1-15.1c0-8.4,9.9-15.1,22.1-15.1
		C103.6,101.2,113.4,108,113.4,116.3z"/>
	<path display="inline" fill-rule="evenodd" clip-rule="evenodd" d="M80,2.6c0.5-0.5,0.6-1.3,0.6-2.2c0.7-0.5,2.6-0.5,3.6-0.2
		c-0.2,1.3,0.1,1.2,0.4,2.2c0.5,0.3,1.4,0.1,1.8,0.4c0.6-0.5,1-1.3,1.4-2C88.9,1.1,90,1.7,91,2.2c0.1,0.9-0.4,1.3-0.4,2.2
		c0.2,0.7,1,0.7,1.4,1.2c0.7-0.3,1.1-0.9,1.8-1.2c1.2,0.4,1.6,1.6,2.6,2.2c-0.3,0.8-0.8,1.4-1.4,2c0.3,0.5,0.7,1,1,1.6
		c0.8-0.1,1.4-0.4,2.4-0.4c0.8,0.9,0.8,2.5,1.4,3.6c-0.5,0.6-1.5,0.8-2,1.4c-0.2,1.6,1.5,1.3,2.6,1.6c0,1.6-0.1,2.1,0,3.5
		c-0.6,0.2-1.4,0.3-2.2,0.4c-0.5,0.3-0.2,1.4-0.6,1.8c0.4,0.8,1.4,0.9,2,1.6c-0.3,1.3-1,2.1-1.4,3.4c-0.7-0.3-1.6-0.2-2.2-0.6
		c-0.5,0.2-0.8,0.7-1,1.2c0.2,0.8,0.7,1.3,1,2c-0.4,1.1-1.4,1.6-2.2,2.4c-0.9-0.2-1.3-0.8-2-1.2c-0.7,0.2-1.2,0.7-1.6,1.2
		c0.1,0.7,0.2,1.5,0.4,2.2c-1.1,0.4-2,1-3.4,1.2c-0.3-0.7-0.9-1.2-1.2-2c-0.5,0-0.6,0.3-1.2,0.2c-0.6,0.4-0.3,1.8-0.8,2.4
		c-1.5,0-2,0.1-3.4,0c-0.2-0.6-0.3-1.4-0.4-2.2c-0.5-0.3-1.3-0.2-2-0.4c-0.5,0.5-0.8,1.3-1.4,1.8c-1.4-0.1-2-0.9-3.2-1.2
		c-0.1-1,0.5-1.4,0.4-2.4c-0.2-0.4-0.8-0.4-1-0.8c-0.6,0.4-1.4,0.6-1.8,1.2c-1-0.7-2.2-1.3-2.8-2.6c0.5-0.5,0.7-1.2,1.2-1.8
		c-0.3-0.7-0.7-1.3-1.2-1.8c-0.9,0-1.5,0.3-2.4,0.4c-0.3-1-0.8-1.7-1-2.8c0.2-0.9,1.4-0.8,1.8-1.6c0.1-0.7-0.3-0.8-0.2-1.6
		c-0.7-0.3-1.6-0.3-2.4-0.6c0-1.1,0-2.1,0-3.2c0.9,0,1.3-0.5,2.2-0.4c0.3-0.5,0.5-1.1,0.4-2c-0.4-0.6-1.3-0.8-1.8-1.4
		c0.2-1.2,0.8-2,1.2-3.2c1,0,1.7,0.2,2.4,0.4c0.5-0.2,0.5-0.9,1-1.2c-0.2-0.9-0.9-1.2-1.2-2c0.5-1,1.3-1.8,2.4-2.4
		c0.4,0.6,1.3,0.6,1.6,1.2c0.7-0.3,1.3-0.7,1.8-1.2C74.5,3.4,74,3,74.1,2c1-0.3,1.9-0.8,3-1.2C78.6,1.7,77.6,3.1,80,2.6z M93.8,15.6
		c-1.7-6.2-8.6-10.9-16.6-7.9c-2.7,2.3-5.5,4.4-5.9,8.7C70.6,23,74.6,27.1,79.4,29c0.2,0.3,0.4-0.5,1,0c0-2,0-3.9,0-5.9
		c-3.9-1-4.1-9.2-0.2-9.7c-0.1,1.9,0.2,3.9,0.2,5.1c1.4,0,2.9,0,4.3,0c0-1.8,0-3.7,0-5.5c4.3,1.4,3.8,8.5,0,10.3c0,1.8,0,3.7,0,5.5
		C91,27.6,93.9,22.6,93.8,15.6z"/>
	<line display="inline" fill="none" stroke="#000000" stroke-width="4" x1="243.5" y1="116.4" x2="243.5" y2="19.2"/>
	<path display="inline" d="M212.5,116.3c0,8.3,9.9,15.1,22.1,15.1c12.2,0,22.1-6.8,22.1-15.1c0-8.4-9.9-15.1-22.1-15.1
		C222.4,101.2,212.5,108,212.5,116.3z"/>
	<path display="inline" fill-rule="evenodd" clip-rule="evenodd" d="M249,0.8c1,0.4,1.9,0.8,3,1.2c0.1,1-0.5,1.4-0.4,2.4
		c0.5,0.5,1,0.9,1.8,1.2c0.3-0.6,1.2-0.6,1.6-1.2c1,0.5,1.8,1.3,2.4,2.4c-0.3,0.8-1,1.1-1.2,2c0.4,0.3,0.5,1,1,1.2
		c0.7-0.2,1.4-0.4,2.4-0.4c0.3,1.1,1,1.9,1.2,3.2c-0.5,0.6-1.4,0.7-1.8,1.4c-0.1,0.9,0.1,1.4,0.4,2c0.9-0.1,1.3,0.4,2.2,0.4
		c0,1,0,2.1,0,3.2c-0.7,0.3-1.7,0.3-2.4,0.6c0.1,0.7-0.3,0.8-0.2,1.6c0.4,0.7,1.5,0.7,1.8,1.6c-0.2,1.1-0.7,1.8-1,2.8
		c-0.9,0-1.4-0.4-2.4-0.4c-0.5,0.5-0.8,1.1-1.2,1.8c0.4,0.5,0.7,1.3,1.2,1.8c-0.5,1.2-1.7,1.8-2.8,2.6c-0.4-0.6-1.1-0.8-1.8-1.2
		c-0.2,0.4-0.8,0.4-1,0.8c-0.1,1,0.5,1.4,0.4,2.4c-1.2,0.3-1.8,1.1-3.2,1.2c-0.5-0.5-0.9-1.2-1.4-1.8c-0.6,0.2-1.5,0.1-2,0.4
		c-0.1,0.8-0.1,1.6-0.4,2.2c-1.3,0.1-1.8,0-3.4,0c-0.4-0.6-0.2-1.9-0.8-2.4c-0.6,0.1-0.7-0.2-1.2-0.2c-0.3,0.7-0.9,1.2-1.2,2
		c-1.4-0.2-2.2-0.8-3.4-1.2c0.2-0.7,0.3-1.4,0.4-2.2c-0.4-0.5-0.9-0.9-1.6-1.2c-0.7,0.4-1.1,1-2,1.2c-0.8-0.7-1.7-1.3-2.2-2.4
		c0.3-0.7,0.8-1.2,1-2c-0.2-0.5-0.5-0.9-1-1.2c-0.6,0.3-1.5,0.3-2.2,0.6c-0.4-1.2-1.1-2.1-1.4-3.4c0.5-0.6,1.6-0.8,2-1.6
		c-0.4-0.4-0.1-1.5-0.6-1.8c-0.8-0.1-1.6-0.2-2.2-0.4c0.1-1.5,0-1.9,0-3.5c1.1-0.3,2.8,0,2.6-1.6c-0.5-0.6-1.5-0.7-2-1.4
		c0.6-1.1,0.6-2.7,1.4-3.6c1,0,1.6,0.3,2.4,0.4c0.3-0.6,0.7-1,1-1.6c-0.6-0.6-1-1.2-1.4-2c1-0.6,1.4-1.8,2.6-2.2
		c0.7,0.3,1.1,0.9,1.8,1.2c0.4-0.4,1.2-0.5,1.4-1.2c0-0.9-0.5-1.3-0.4-2.2c1-0.5,2.1-1.1,3.4-1.4c0.4,0.7,0.8,1.5,1.4,2
		c0.4-0.3,1.3-0.1,1.8-0.4c0.3-1,0.6-0.9,0.4-2.2c1-0.3,2.8-0.3,3.5,0.2c0,0.9,0.1,1.7,0.6,2.2C248.4,3.1,247.3,1.7,249,0.8z
		 M241.3,28.8c0-1.8,0-3.7,0-5.5c-3.8-1.7-4.3-8.8,0-10.3c0,1.8,0,3.7,0,5.5c1.4,0,2.9,0,4.3,0c0-1.2,0.3-3.3,0.2-5.1
		c3.9,0.5,3.7,8.7-0.2,9.7c0,2,0,3.9,0,5.9c0.6-0.5,0.8,0.3,1,0c4.8-1.9,8.8-6,8.1-12.6c-0.4-4.3-3.2-6.3-5.9-8.7
		c-7.9-3-14.8,1.6-16.6,7.9C232,22.6,235,27.6,241.3,28.8z"/>
	<g display="inline">
		<path d="M113.5,216c-0.3,0-0.6-0.2-0.8-0.4c-0.2-0.3-0.2-0.6-0.1-0.9l10-31.8c0.1-0.4,0.5-0.7,1-0.7h78.7c0.4,0,0.8,0.3,1,0.7
			l10,31.8c0.1,0.3,0,0.6-0.1,0.9c-0.2,0.3-0.5,0.4-0.8,0.4H113.5z"/>
		<path fill="#00AEEF" d="M202.2,183.2l10,31.8h-98.7l10-31.8H202.2 M202.2,181.2h-78.7c-0.9,0-1.6,0.6-1.9,1.4l-10,31.8
			c-0.2,0.6-0.1,1.3,0.3,1.8c0.4,0.5,1,0.8,1.6,0.8h98.7c0.6,0,1.2-0.3,1.6-0.8c0.4-0.5,0.5-1.2,0.3-1.8l-10-31.8
			C203.8,181.7,203.1,181.2,202.2,181.2L202.2,181.2z"/>
	</g>
	<g display="inline">
		<path d="M145.7,188c-12.1,0-25.5-5.4-35.9-14.4c-12-10.5-18.6-24.7-18.6-40V59.1c0-8,6.5-14.5,14.5-14.5h114.4
			c8,0,14.5,6.5,14.5,14.5v74.4c0,15.5-6.5,29.7-18.2,40c-10.2,9-23.8,14.4-36.3,14.4H145.7z"/>
		<path fill="#00AEEF" d="M220.1,45.7c7.4,0,13.5,6,13.5,13.5v74.4c0,33.5-29.7,53.5-53.5,53.5h-34.4c-22.6,0-53.5-20-53.5-53.5
			V59.1c0-7.4,6-13.5,13.5-13.5H220.1 M220.1,43.7H105.7c-8.5,0-15.5,6.9-15.5,15.5v74.4c0,15.7,6.7,30.1,19,40.8
			c10.6,9.2,24.2,14.7,36.5,14.7h34.4c12.7,0,26.5-5.5,37-14.7c11.9-10.5,18.5-25,18.5-40.8V59.1C235.5,50.6,228.6,43.7,220.1,43.7
			L220.1,43.7z"/>
	</g>
	<g display="inline">
		<path d="M153.4,129.6c-0.3,0-0.6-0.2-0.8-0.4c-0.2-0.3-0.2-0.6-0.1-0.9l9.5-24.5c0.1-0.4,0.5-0.6,0.9-0.6c0.4,0,0.8,0.3,0.9,0.6
			l9.5,24.5c0.1,0.3,0.1,0.7-0.1,0.9c-0.2,0.3-0.5,0.4-0.8,0.4H153.4z"/>
		<g>
			<path fill="#00AEEF" d="M162.9,104.1l9.5,24.5h-9.5h-9.5L162.9,104.1 M162.9,102.1c-0.8,0-1.6,0.5-1.9,1.3l-9.5,24.5
				c-0.2,0.6-0.2,1.3,0.2,1.9c0.4,0.5,1,0.9,1.7,0.9h9.5h9.5c0.7,0,1.3-0.3,1.7-0.9c0.4-0.5,0.5-1.2,0.2-1.9l-9.5-24.5
				C164.4,102.6,163.7,102.1,162.9,102.1L162.9,102.1z"/>
		</g>
	</g>
	<g display="inline">
		<path fill="none" stroke="#000000" d="M133.6,143.5h58.5c0,0,1.6,23.5-29.4,23.5S133.6,143.5,133.6,143.5z"/>
		<g>
			<path d="M162.8,168c-10.9,0-19.1-2.9-24.3-8.5c-6.5-7-5.9-15.7-5.9-16.1c0-0.5,0.5-0.9,1-0.9h58.5c0.5,0,1,0.4,1,0.9
				c0,0.4,0.5,9.1-6,16.1C181.9,165.1,173.7,168,162.8,168L162.8,168z"/>
			<path fill="#00AEEF" d="M192.1,143.5c0,0,1.6,23.5-29.4,23.5s-29.1-23.5-29.1-23.5H192.1 M192.1,141.5h-58.5c-1,0-1.9,0.8-2,1.8
				c0,0.4-0.7,9.5,6.1,16.9c5.4,5.8,13.8,8.8,25,8.8c11.2,0,19.6-3,25.1-8.8c6.8-7.3,6.3-16.5,6.3-16.8
				C194,142.3,193.2,141.5,192.1,141.5L192.1,141.5z"/>
		</g>
		<g>
			<path fill="#FFFFFF" d="M190.6,152c1.8-4.6,1.5-8.5,1.5-8.5h-58.5c0,0-0.3,3.9,1.4,8.5H190.6z"/>
		</g>
		<g>
			<g>
				<path fill="#00AEEF" d="M181.5,162.7c-1.4-3.6-4.9-6.2-9.1-6.2c-5.4,0-9.7,4.4-9.7,9.8c0,0.3,0,0.5,0,0.7c0,0,0.1,0,0.1,0
					C174.5,167.3,181.8,162.5,181.5,162.7z"/>
			</g>
		</g>
	</g>
	<polygon display="inline" fill="#FFFFFF" points="162.9,104.1 162.9,128.6 172.4,128.6 	"/>
	<g display="inline">
		<g>
			<path fill="#FFFFFF" d="M-16.4,273.4v7H-20v-7H-16.4z M-11.2,273.4v7h-3.7v-7H-11.2z"/>
			<path fill="#FFFFFF" d="M0.5,273.4h3.6v14h-14v-14h3.6v10.3h1.5v-10.3H-1v10.3h1.5V273.4z"/>
			<path fill="#FFFFFF" d="M15.8,273.4h3.6v14h-3.6v-5.2H9.2v5.2H5.5v-14h3.6v5.1h6.7V273.4z"/>
			<path fill="#FFFFFF" d="M34.8,273.4v14h-14v-8.8h10.3V277H20.9v-3.6H34.8z M24.5,282.2v1.5h6.7v-1.5H24.5z"/>
			<path fill="#FFFFFF" d="M50.2,273.4v3.6H45v10.3h-3.7V277h-5.1v-3.6H50.2z"/>
			<path fill="#FFFFFF" d="M76,275.2l-5.9,5.9v6.2h-3.7v-6.3l-5.9-5.9l2.6-2.6l5.1,5.1l5.2-5.1L76,275.2z"/>
			<path fill="#FFFFFF" d="M91.3,273.4v14h-14v-14H91.3z M81,277v6.7h6.7V277H81z"/>
			<path fill="#FFFFFF" d="M103,273.4h3.6v14h-14v-14h3.6v10.3h6.7V273.4z"/>
			<path fill="#FFFFFF" d="M130.9,273.4v3.6h-10.3v6.7h10.3v3.6h-14v-14H130.9z"/>
			<path fill="#FFFFFF" d="M146.3,273.4v14h-14v-8.8h10.3V277h-10.3v-3.6H146.3z M136,282.2v1.5h6.7v-1.5H136z"/>
			<path fill="#FFFFFF" d="M161.7,272.8v14.6H158v-9.7l-6.7,2v7.7h-3.6v-14h3.6v2.5L161.7,272.8z"/>
			<path fill="#FFFFFF" d="M166.7,273.4v7h-3.6v-7H166.7z"/>
			<path fill="#FFFFFF" d="M182.1,273.4v3.6h-5.2v10.3h-3.7V277h-5.1v-3.6H182.1z"/>
			<path fill="#FFFFFF" d="M206.3,287.3h-14v-14h10.3v-2.6h3.6V287.3z M202.7,277H196v6.7h6.7V277z"/>
			<path fill="#FFFFFF" d="M221.7,273.4v14h-14v-14H221.7z M211.4,277v6.7h6.7V277H211.4z"/>
			<path fill="#FFFFFF" d="M246,272.2v15.1h-3.6v-7.4l-3.4,2.8l-3.3-2.8v7.4H232v-15.1l7,5.8L246,272.2z"/>
			<path fill="#FFFFFF" d="M261.3,273.4v3.6H251v10.4h-3.6v-14H261.3z"/>
			<path fill="#FFFFFF" d="M266.4,285.5c0,1-0.8,1.8-1.8,1.8c-1,0-1.8-0.8-1.8-1.8c0-1,0.8-1.8,1.8-1.8
				C265.6,283.7,266.4,284.5,266.4,285.5z"/>
			<path fill="#FFFFFF" d="M281.7,273.4v3.6h-10.3v6.7h10.3v3.6h-14v-14H281.7z"/>
			<path fill="#FFFFFF" d="M297.1,273.4v14h-14v-8.8h10.3V277h-10.3v-3.6H297.1z M286.8,282.2v1.5h6.7v-1.5H286.8z"/>
			<path fill="#FFFFFF" d="M312.5,272.8v14.6h-3.6v-9.7l-6.7,2v7.7h-3.6v-14h3.6v2.5L312.5,272.8z"/>
			<path fill="#FFFFFF" d="M327.8,287.3h-14v-14h10.3v-2.6h3.6V287.3z M324.2,277h-6.7v6.7h6.7V277z"/>
			<path fill="#FFFFFF" d="M339.6,273.4h3.6v14h-14v-14h3.6v10.3h6.7V273.4z"/>
			<path fill="#FFFFFF" d="M348.3,273.4v7h-3.6v-7H348.3z M353.4,273.4v7h-3.7v-7H353.4z"/>
		</g>
	</g>
	<g display="inline">
		<g>
			
				<line fill="none" stroke="#00AEEF" stroke-width="2" stroke-linecap="round" stroke-linejoin="round" x1="130.2" y1="64.5" x2="195.6" y2="64.5"/>
			<g>
				<path fill="none" stroke="#00AEEF" stroke-width="2" stroke-linecap="round" stroke-linejoin="round" d="M170.4,81.9
					c0,0,0-2.2,0-6.2c0-4-5.5-4.1-7.7-4.1h0.2c-2.2,0-7.7,0.1-7.7,4.1c0,4,0,6.2,0,6.2"/>
			</g>
		</g>
		<path fill="#FFFFFF" stroke="#00AEEF" stroke-linecap="round" stroke-linejoin="round" d="M233.5,89.7
			C233.4,89.7,233.4,89.7,233.5,89.7c0-9-3-17.2-9.1-20.2c-11.1-5.4-51-12.5-54.1,8.4c-0.8,5-2.5,12.3,13.2,30.4
			c15.6,18.1,34.6,14.9,43.8,2.3c3.5-4.9,5.5-11.3,6.1-17.6c0.1,0,0.1,0,0.2,0c2,0,3.7-0.7,3.7-1.7
			C237.1,90.4,235.5,89.7,233.5,89.7z M179.6,97.3h49.2c-0.3,1.6-0.8,3.1-1.3,4.6H183C181.7,100.3,180.6,98.7,179.6,97.3z
			 M177.9,94.7c-1-1.7-1.8-3.2-2.5-4.6h54.2c0,1.5-0.1,3.1-0.4,4.6H177.9z M174.5,87.5c-0.6-1.8-0.8-3.3-0.9-4.6h55.3
			c0.3,1.5,0.5,3,0.6,4.6H174.5z M173.7,80.3c0.1-0.5,0.1-0.9,0.2-1.3l0.1-0.5c0.2-1,0.5-2,0.8-2.8h51c0.9,1.2,1.7,2.8,2.3,4.6
			H173.7z M195.3,67.6c11.5,0,22.9,3.1,27.4,5.3c0.1,0,0.2,0.1,0.3,0.2h-46.4C180.6,68.7,188.5,67.6,195.3,67.6z M186.3,105.8
			c-0.4-0.4-0.8-0.9-1.1-1.3h41.2c-0.7,1.4-1.4,2.7-2.3,3.9c-0.2,0.3-0.4,0.5-0.6,0.8h-34.1C188.4,108.1,187.3,107,186.3,105.8z
			 M207.4,117.2C207.4,117.2,207.4,117.2,207.4,117.2c-5.1,0-10.1-1.9-14.9-5.5h28.6C217.3,115.2,212.5,117.2,207.4,117.2z"/>
		<path fill="#FFFFFF" stroke="#00AEEF" stroke-linecap="round" stroke-linejoin="round" d="M101.4,69.5c-6.1,3-9.1,11.3-9,20.2
			c0,0,0,0-0.1,0c-2,0-3.6,0.7-3.6,1.7c0,0.9,1.6,1.7,3.6,1.7c0.1,0,0.1,0,0.2,0c0.5,6.3,2.6,12.7,6.1,17.6
			c9.1,12.7,28.1,15.8,43.8-2.3c15.6-18.1,13.9-25.4,13.2-30.4C152.4,57,112.4,64,101.4,69.5z M96.9,97.3h49.2c-1,1.4-2.1,3-3.4,4.6
			H98.3C97.7,100.4,97.3,98.9,96.9,97.3z M96.5,94.7c-0.2-1.5-0.3-3.1-0.4-4.6h54.2c-0.6,1.4-1.4,2.9-2.5,4.6H96.5z M96.2,87.5
			c0.1-1.6,0.3-3.1,0.6-4.6h55.3c0,1.3-0.3,2.8-0.9,4.6H96.2z M97.5,80.3c0.6-1.8,1.4-3.4,2.3-4.6h51c0.4,0.9,0.7,1.8,0.8,2.8
			l0.1,0.5c0.1,0.4,0.1,0.9,0.2,1.3H97.5z M130.5,67.6c6.8,0,14.7,1.1,18.7,5.5h-46.4c0.1-0.1,0.2-0.1,0.3-0.2
			C107.5,70.7,119,67.6,130.5,67.6z M104.6,111.7h28.6c-4.7,3.6-9.8,5.5-14.9,5.5C113.2,117.2,108.4,115.2,104.6,111.7z
			 M136.3,109.1h-34.1c-0.2-0.3-0.4-0.5-0.6-0.8c-0.8-1.2-1.6-2.5-2.3-3.9h41.2c-0.4,0.4-0.7,0.9-1.1,1.3
			C138.4,107,137.4,108.1,136.3,109.1z"/>
	</g>
	<path display="inline" fill="#00AEEF" d="M174.8,101.5c-0.5-0.8-1-1.6-1.5-2.4c0.5,0.6,1,0.9,1.4,0.7c0.5-0.3,0.5-1.5-0.1-2.7
		c-0.6-1.2-1.5-2-2-1.8c-0.5,0.3-0.5,1.4,0.1,2.6c-0.7-1.2-1.3-2.4-1.5-3.8c-0.3-1.8-1-3.8-1.5-3.1c0,0-1.5,0.7,0.3,5.6
		c1.8,4.9,6,9.8,7.6,9.7C178.4,106.5,176.4,104.2,174.8,101.5z"/>
	<path display="inline" fill="#00AEEF" d="M151.1,101.5c0.5-0.8,1-1.6,1.5-2.4c-0.5,0.6-1,0.9-1.4,0.7c-0.5-0.3-0.5-1.5,0.1-2.7
		c0.6-1.2,1.5-2,2-1.8c0.5,0.3,0.5,1.4-0.1,2.6c0.7-1.2,1.3-2.4,1.5-3.8c0.3-1.8,1-3.8,1.5-3.1c0,0,1.5,0.7-0.3,5.6
		c-1.8,4.9-6,9.8-7.6,9.7C147.4,106.5,149.4,104.2,151.1,101.5z"/>
</g>
<g id="ray_ban_classics">
	<g>
		<g>
			<path d="M299.6,79.8c-0.5,0-1-0.3-1.2-0.7c-0.4-0.8,0.2-1.7,1.3-2.8c5-5.4-0.2-19.8-0.2-19.9c-0.2-0.4,0-0.9,0.4-1.2l6.9-4.5
				c0.2-0.1,0.4-0.2,0.5-0.2c0.3,0,0.6,0.1,0.7,0.3c0.1,0.2,3.6,4.2,4.4,13.3c0.3,3.8-2.2,7.4-4.4,9.7
				C305.3,76.9,301.2,79.8,299.6,79.8L299.6,79.8z"/>
			<path fill="#00AEEF" d="M307.4,51.5c0,0,3.4,3.8,4.1,12.7c0.6,7-10,14.5-11.8,14.5c-0.5,0-0.4-0.5,0.8-1.8c5.5-5.9,0-21,0-21
				L307.4,51.5 M307.4,49.5c-0.4,0-0.8,0.1-1.1,0.3l-6.9,4.5c-0.8,0.5-1.1,1.5-0.8,2.4c1.4,3.9,4.2,14.8,0.4,18.9
				c-0.8,0.8-2.1,2.3-1.4,3.8c0.4,0.8,1.2,1.3,2.1,1.3c2.1,0,6.5-3.2,9.2-6.2c2.3-2.5,5-6.3,4.6-10.5c-0.8-9.5-4.5-13.7-4.6-13.9
				C308.5,49.7,307.9,49.5,307.4,49.5L307.4,49.5z"/>
		</g>
		<g>
			<path d="M291.8,117.4c-10.2,0-20.5-2.1-20.5-6.1c0-4,10.3-6.1,20.5-6.1c10.2,0,20.5,2.1,20.5,6.1
				C312.3,115.2,302,117.4,291.8,117.4L291.8,117.4z"/>
			<path fill="#00AEEF" d="M291.8,106.1c10.8,0,19.5,2.3,19.5,5.1c0,2.8-8.7,5.1-19.5,5.1c-10.8,0-19.5-2.3-19.5-5.1
				C272.3,108.4,281,106.1,291.8,106.1 M291.8,104.1c-2.2,0-21.5,0.2-21.5,7.1c0,6.9,19.3,7.1,21.5,7.1c2.2,0,21.5-0.2,21.5-7.1
				C313.3,104.3,294,104.1,291.8,104.1L291.8,104.1z"/>
		</g>
		<g>
			<path d="M234.6,209.5c-17.7,0-32.5-4-32.7-4c-0.4-0.1-0.7-0.5-0.7-1V177c0-0.3,0.1-0.6,0.4-0.8c0.2-0.2,0.4-0.2,0.6-0.2
				c0.1,0,0.1,0,0.2,0c0.1,0,7.9,1.3,18.7,1.3c10,0,24.6-1.2,37.6-6.7c24.6-10.4,22.5-62.7,22.4-63.3c0-0.3,0.1-0.5,0.3-0.7
				c0.2-0.2,0.4-0.3,0.7-0.3h20.1c0.5,0,0.9,0.3,1,0.8c0.1,0.4,8.1,44.9-15.4,79.7C275.2,205.6,251.9,209.5,234.6,209.5
				C234.6,209.5,234.6,209.5,234.6,209.5z"/>
			<path fill="#00AEEF" d="M302.2,107.4c0,0,8.3,44.1-15.2,78.9c-12,17.8-33.9,22.1-52.4,22.1c-17.7,0-32.4-4-32.4-4V177
				c0,0,7.8,1.3,18.9,1.3c11,0,25.3-1.3,38-6.7c25.5-10.8,23-64.2,23-64.2H302.2 M302.2,105.4h-20.1c-0.5,0-1.1,0.2-1.4,0.6
				c-0.4,0.4-0.6,0.9-0.6,1.5c0,0.5,2.1,52.2-21.8,62.3c-12.9,5.4-27.3,6.6-37.2,6.6c-10.7,0-18.5-1.3-18.5-1.3c-0.1,0-0.2,0-0.3,0
				c-0.5,0-0.9,0.2-1.3,0.5c-0.5,0.4-0.7,0.9-0.7,1.5v27.5c0,0.9,0.6,1.7,1.5,1.9c0.6,0.2,15.1,4.1,32.9,4.1c25.2,0,43.9-8,54.1-23
				c12.4-18.4,16-39.2,16.8-53.5c0.9-15.5-1.2-26.4-1.3-26.9C304,106.1,303.2,105.4,302.2,105.4L302.2,105.4z"/>
		</g>
		<g>
			<path d="M305.7,75.4c-0.5,0-1-0.3-1.2-0.7c-0.4-0.8,0.2-1.7,1.3-2.8c5-5.4-0.2-19.8-0.2-19.9c-0.2-0.4,0-0.9,0.4-1.2l6.9-4.5
				c0.2-0.1,0.4-0.2,0.5-0.2c0.3,0,0.6,0.1,0.7,0.3c0.1,0.2,3.6,4.2,4.4,13.3c0.3,3.8-2.2,7.4-4.4,9.7
				C311.3,72.6,307.3,75.4,305.7,75.4L305.7,75.4z"/>
			<path fill="#00AEEF" d="M313.4,47.1c0,0,3.4,3.8,4.1,12.7c0.6,7-10,14.5-11.9,14.5c-0.5,0-0.4-0.5,0.8-1.8c5.5-5.9,0-21,0-21
				L313.4,47.1 M313.4,45.1c-0.4,0-0.8,0.1-1.1,0.3l-6.9,4.5c-0.8,0.5-1.1,1.5-0.8,2.4c1.4,3.9,4.2,14.8,0.4,18.9
				c-0.8,0.8-2.1,2.3-1.4,3.8c0.4,0.8,1.2,1.3,2.1,1.3c2.1,0,6.5-3.2,9.2-6.2c2.3-2.5,5-6.3,4.6-10.5c-0.8-9.5-4.5-13.7-4.6-13.9
				C314.5,45.3,314,45.1,313.4,45.1L313.4,45.1z"/>
		</g>
		<g>
			<path d="M290,94.6c-0.6,0-1-0.4-1-1v-9.3c-7.7-0.5-15.4-6.6-15.4-17.5c0-10.8,5.6-21.4,5.8-21.8c0.2-0.3,0.5-0.5,0.8-0.5
				c0,0,0.1,0,0.1,0c0.3,0,0.6,0.1,0.8,0.4c0,0,2.7,3.6,7.6,6.4c0.4,0.2,0.6,0.7,0.5,1.2c-1.9,6.5-1.5,12.3,1.2,15.8
				c1.5,2,3.6,3.1,6,3.1c7.3,0,12.2-1.9,14.6-5.7c4.2-6.5-0.5-16.7-0.5-16.8c-0.2-0.5,0-1,0.4-1.3l5.1-2.9c0.2-0.1,0.3-0.1,0.5-0.1
				c0.2,0,0.4,0.1,0.5,0.2c0.3,0.2,7.8,5.2,7.8,18.5c0,18.3-21.2,20.8-26.1,21.2v9.3c0,0.6-0.4,1-1,1H290z"/>
			<path fill="#00AEEF" d="M316.5,45.4c0,0,7.4,4.8,7.4,17.7c0,19.9-26.1,20.2-26.1,20.2v10.3H290V83.3c-7.7,0-15.4-5.9-15.4-16.5
				c0-10.7,5.7-21.3,5.7-21.3s2.8,3.7,7.9,6.6c-3.7,12.5,1.5,20.2,8.1,20.2c26.2,0,15-23.9,15-23.9L316.5,45.4 M316.5,43.4
				c-0.3,0-0.7,0.1-1,0.3l-5.1,2.9c-0.9,0.5-1.3,1.6-0.8,2.6c0,0.1,4.5,9.8,0.6,15.9c-2.2,3.5-6.9,5.2-13.8,5.2c-2,0-3.9-1-5.2-2.7
				c-2.5-3.3-2.8-8.7-1-14.9c0.3-0.9-0.1-1.8-0.9-2.3c-4.7-2.7-7.3-6.1-7.3-6.1c-0.4-0.5-1-0.8-1.6-0.8c-0.1,0-0.1,0-0.2,0
				c-0.7,0.1-1.3,0.4-1.6,1.1c-0.2,0.5-5.9,11.2-5.9,22.3c0,11.1,7.6,17.5,15.4,18.4v8.4c0,1.1,0.9,2,2,2h7.7c1.1,0,2-0.9,2-2v-8.4
				c2.5-0.2,7.1-0.9,11.8-2.7c9.4-3.7,14.3-10.4,14.3-19.4c0-13.8-7.9-19.1-8.3-19.3C317.2,43.5,316.8,43.4,316.5,43.4L316.5,43.4z"
				/>
		</g>
		<g>
			<path d="M311.3,112.2c-0.4,0-0.8-0.2-0.9-0.6c-0.1-0.1-2.4-4.5-18.6-4.5c-12.2,0-14.7,0.4-18.8,4.8c-0.2,0.2-0.5,0.3-0.7,0.3
				c-0.1,0-0.2,0-0.4-0.1c-0.4-0.1-0.6-0.5-0.6-0.9v-15c0-4,10.3-6.1,20.5-6.1c10.2,0,20.5,2.1,20.5,6.1v15c0,0.5-0.3,0.9-0.8,1
				C311.4,112.2,311.4,112.2,311.3,112.2L311.3,112.2z"/>
			<path fill="#00AEEF" d="M291.8,91c10.8,0,19.5,2.3,19.5,5.1v15c0,0-1.9-5.1-19.5-5.1c-12.3,0-15.1,0.4-19.5,5.1c0-7.7,0-15,0-15
				C272.3,93.3,281,91,291.8,91 M291.8,89c-2.2,0-21.5,0.2-21.5,7.1v15c0,0.8,0.5,1.6,1.3,1.9c0.2,0.1,0.5,0.1,0.7,0.1
				c0.6,0,1.1-0.2,1.5-0.7c3.7-4,5.5-4.5,18-4.5c14.2,0,17.3,3.4,17.7,3.9c0.2,0.9,1,1.4,1.9,1.4c0.1,0,0.2,0,0.2,0
				c1-0.1,1.8-1.1,1.8-2.1v-15C313.3,89.2,294,89,291.8,89L291.8,89z"/>
		</g>
		<path fill="none" stroke="#00AEEF" stroke-width="2" stroke-linecap="round" stroke-linejoin="round" d="M280.2,135.2
			c0,0,14.3,7.4,22.7,5.5"/>
		<path fill="none" stroke="#00AEEF" stroke-width="2" stroke-linecap="round" stroke-linejoin="round" d="M274.5,154.8
			c0,0,9.3,10.8,21.8,13.7"/>
		<path fill="none" stroke="#00AEEF" stroke-width="2" stroke-linecap="round" stroke-linejoin="round" d="M264.3,168.5
			c0,0,10.5,20.8,15.9,25.7"/>
		<path fill="none" stroke="#00AEEF" stroke-width="2" stroke-linecap="round" stroke-linejoin="round" d="M241.8,176.6
			c0,0,2.5,22.1,1.8,31.5"/>
		<path fill="none" stroke="#00AEEF" stroke-width="2" stroke-linecap="round" stroke-linejoin="round" d="M218.3,178.3
			c0,0,1.8,22,0,29.1"/>
	</g>
	<g>
		<g>
			<path d="M26.2,79.8c-1.6,0-5.6-2.8-8.5-5.9c-2.2-2.3-4.7-5.9-4.4-9.7c0.8-9.2,4.2-13.2,4.4-13.3c0.2-0.2,0.5-0.3,0.7-0.3
				c0.2,0,0.4,0.1,0.5,0.2l6.9,4.5c0.4,0.3,0.6,0.7,0.4,1.2c-0.1,0.1-5.2,14.6-0.2,19.9c1,1.1,1.6,2,1.3,2.8
				C27.2,79.5,26.7,79.8,26.2,79.8L26.2,79.8z"/>
			<path fill="#00AEEF" d="M18.4,51.5l6.9,4.5c0,0-5.5,15.1,0,21c1.2,1.3,1.3,1.8,0.8,1.8c-1.8,0-12.4-7.5-11.9-14.5
				C15.1,55.3,18.4,51.5,18.4,51.5 M18.4,49.5c-0.6,0-1.1,0.2-1.5,0.7c-0.2,0.2-3.8,4.4-4.6,13.9c-0.3,4.1,2.3,8,4.6,10.5
				c2.8,3,7.1,6.2,9.2,6.2c0.9,0,1.7-0.5,2.1-1.3c0.7-1.6-0.7-3-1.4-3.8c-3.8-4.1-1-15,0.4-18.9c0.3-0.9,0-1.9-0.8-2.4l-6.9-4.5
				C19.2,49.6,18.8,49.5,18.4,49.5L18.4,49.5z"/>
		</g>
		<g>
			<path d="M34,117.4c-10.2,0-20.5-2.1-20.5-6.1c0-4,10.3-6.1,20.5-6.1c10.2,0,20.5,2.1,20.5,6.1C54.5,115.2,44.2,117.4,34,117.4
				L34,117.4z"/>
			<path fill="#00AEEF" d="M34,106.1c10.8,0,19.5,2.3,19.5,5.1c0,2.8-8.7,5.1-19.5,5.1c-10.8,0-19.5-2.3-19.5-5.1
				C14.5,108.4,23.2,106.1,34,106.1 M34,104.1c-2.2,0-21.5,0.2-21.5,7.1c0,6.9,19.3,7.1,21.5,7.1c2.2,0,21.5-0.2,21.5-7.1
				C55.5,104.3,36.2,104.1,34,104.1L34,104.1z"/>
		</g>
		<g>
			<path d="M91.2,209.5c-17.3,0-40.6-3.9-53.3-22.6c-23.5-34.8-15.4-79.2-15.4-79.7c0.1-0.5,0.5-0.8,1-0.8h20.1
				c0.3,0,0.5,0.1,0.7,0.3c0.2,0.2,0.3,0.5,0.3,0.7c0,0.5-2.1,52.9,22.4,63.3c13,5.5,27.6,6.7,37.6,6.7c10.8,0,18.6-1.3,18.7-1.3
				c0.1,0,0.1,0,0.2,0c0.2,0,0.5,0.1,0.6,0.2c0.2,0.2,0.4,0.5,0.4,0.8v27.5c0,0.5-0.3,0.8-0.7,1C123.7,205.5,108.9,209.5,91.2,209.5
				L91.2,209.5z"/>
			<path fill="#00AEEF" d="M43.7,107.4c0,0-2.5,53.4,23,64.2c12.7,5.4,27,6.7,38,6.7c11,0,18.9-1.3,18.9-1.3v27.5c0,0-14.7,4-32.4,4
				c-18.5,0-40.4-4.3-52.4-22.1c-23.5-34.8-15.2-78.9-15.2-78.9H43.7 M43.7,105.4H23.6c-1,0-1.8,0.7-2,1.6
				c-0.1,0.5-2.1,11.4-1.3,26.9c0.8,14.3,4.4,35.2,16.8,53.5c10.2,15.1,28.9,23,54.1,23c17.8,0,32.3-3.9,32.9-4.1
				c0.9-0.2,1.5-1,1.5-1.9V177c0-0.6-0.3-1.1-0.7-1.5c-0.4-0.3-0.8-0.5-1.3-0.5c-0.1,0-0.2,0-0.3,0c-0.1,0-7.8,1.3-18.5,1.3
				c-9.9,0-24.4-1.1-37.2-6.6c-23.9-10.1-21.9-61.8-21.8-62.3c0-0.5-0.2-1.1-0.6-1.5C44.7,105.6,44.2,105.4,43.7,105.4L43.7,105.4z"
				/>
		</g>
		<g>
			<path d="M20.1,75.4c-1.6,0-5.6-2.8-8.5-5.9c-2.2-2.3-4.7-5.9-4.4-9.7c0.8-9.2,4.2-13.2,4.4-13.3c0.2-0.2,0.5-0.3,0.7-0.3
				c0.2,0,0.4,0.1,0.5,0.2l6.9,4.5c0.4,0.3,0.6,0.7,0.4,1.2C20.2,52.1,15,66.5,20,71.9c1,1.1,1.6,2,1.3,2.8
				C21.1,75.1,20.6,75.4,20.1,75.4L20.1,75.4z"/>
			<path fill="#00AEEF" d="M12.4,47.1l6.9,4.5c0,0-5.5,15.1,0,21c1.2,1.3,1.3,1.8,0.8,1.8c-1.8,0-12.4-7.5-11.9-14.5
				C9,50.9,12.4,47.1,12.4,47.1 M12.4,45.1c-0.6,0-1.1,0.2-1.5,0.7c-0.2,0.2-3.8,4.4-4.6,13.9c-0.3,4.1,2.3,8,4.6,10.5
				c2.8,3,7.1,6.2,9.2,6.2c0.9,0,1.7-0.5,2.1-1.3c0.7-1.6-0.7-3-1.4-3.8c-3.8-4.1-1-15,0.4-18.9c0.3-0.9,0-1.9-0.8-2.4l-6.9-4.5
				C13.1,45.2,12.7,45.1,12.4,45.1L12.4,45.1z"/>
		</g>
		<g>
			<path d="M28.1,94.6c-0.6,0-1-0.4-1-1v-9.3C22.2,83.9,1,81.4,1,63c0-13.3,7.5-18.3,7.8-18.5c0.2-0.1,0.4-0.2,0.5-0.2
				c0.2,0,0.3,0,0.5,0.1l5.1,2.9c0.5,0.3,0.6,0.8,0.4,1.3c0,0.1-4.7,10.3-0.5,16.8c2.4,3.8,7.3,5.7,14.6,5.7c2.4,0,4.5-1.1,6-3.1
				c2.7-3.5,3.1-9.3,1.2-15.8c-0.1-0.4,0.1-0.9,0.5-1.2c4.9-2.8,7.6-6.3,7.6-6.4c0.2-0.3,0.5-0.4,0.8-0.4c0,0,0.1,0,0.1,0
				c0.3,0,0.6,0.2,0.8,0.5c0.2,0.4,5.8,11,5.8,21.8c0,10.9-7.8,17-15.4,17.5v9.3c0,0.6-0.4,1-1,1H28.1z"/>
			<path fill="#00AEEF" d="M45.6,45.4c0,0,5.7,10.7,5.7,21.3c0,10.7-7.7,16.5-15.4,16.5v10.3h-7.7V83.3C28.1,83.3,2,82.9,2,63
				c0-12.9,7.4-17.7,7.4-17.7l5.1,2.9c0,0-11.1,23.9,15,23.9c6.7,0,11.8-7.7,8.1-20.2C42.8,49.1,45.6,45.4,45.6,45.4 M45.6,43.4
				c-0.6,0-1.2,0.3-1.6,0.8l0,0c0,0-2.6,3.4-7.3,6.1c-0.8,0.5-1.2,1.4-0.9,2.3c1.8,6.2,1.5,11.6-1,14.9c-1.3,1.8-3.2,2.7-5.2,2.7
				c-7,0-11.6-1.8-13.8-5.2c-3.9-6.1,0.5-15.7,0.6-15.8c0.4-0.9,0.1-2.1-0.8-2.6l-5.1-2.9c-0.3-0.2-0.7-0.3-1-0.3
				c-0.4,0-0.8,0.1-1.1,0.3C7.9,43.9,0,49.2,0,63c0,9,5,15.7,14.3,19.4c4.7,1.8,9.3,2.5,11.8,2.7v8.4c0,1.1,0.9,2,2,2h7.7
				c1.1,0,2-0.9,2-2v-8.4c7.8-0.9,15.4-7.3,15.4-18.4c0-11-5.7-21.8-5.9-22.3c-0.3-0.6-0.9-1-1.6-1.1C45.7,43.4,45.6,43.4,45.6,43.4
				L45.6,43.4z"/>
		</g>
		<g>
			<path d="M53.5,112.2c-0.3,0-0.5-0.1-0.7-0.3c-4.1-4.5-6.6-4.8-18.8-4.8c-16.3,0-18.6,4.5-18.6,4.5c-0.2,0.4-0.5,0.6-0.9,0.6
				c-0.1,0-0.1,0-0.2,0c-0.5-0.1-0.8-0.5-0.8-1v-15c0-4,10.3-6.1,20.5-6.1c10.2,0,20.5,2.1,20.5,6.1v15c0,0.4-0.3,0.8-0.6,0.9
				C53.8,112.2,53.7,112.2,53.5,112.2L53.5,112.2z"/>
			<path fill="#00AEEF" d="M34,91c10.8,0,19.5,2.3,19.5,5.1c0,0,0,7.3,0,15c-4.4-4.8-7.2-5.1-19.5-5.1c-17.6,0-19.5,5.1-19.5,5.1
				v-15C14.5,93.3,23.2,91,34,91 M34,89c-2.2,0-21.5,0.2-21.5,7.1v15c0,1,0.7,2,1.8,2.1c0.1,0,0.2,0,0.2,0c0.9,0,1.6-0.5,1.9-1.4
				c0.4-0.5,3.4-3.9,17.7-3.9c12.5,0,14.3,0.5,18,4.5c0.4,0.4,0.9,0.7,1.5,0.7c0.2,0,0.5,0,0.7-0.1c0.8-0.3,1.3-1,1.3-1.9v-15
				C55.5,89.2,36.2,89,34,89L34,89z"/>
		</g>
		<path fill="none" stroke="#00AEEF" stroke-width="2" stroke-linecap="round" stroke-linejoin="round" d="M45.6,135.2
			c0,0-14.3,7.4-22.7,5.5"/>
		<path fill="none" stroke="#00AEEF" stroke-width="2" stroke-linecap="round" stroke-linejoin="round" d="M51.3,154.8
			c0,0-9.3,10.8-21.8,13.7"/>
		<path fill="none" stroke="#00AEEF" stroke-width="2" stroke-linecap="round" stroke-linejoin="round" d="M61.5,168.5
			c0,0-10.5,20.8-15.9,25.7"/>
		<path fill="none" stroke="#00AEEF" stroke-width="2" stroke-linecap="round" stroke-linejoin="round" d="M84,176.6
			c0,0-2.5,22.1-1.8,31.5"/>
		<path fill="none" stroke="#00AEEF" stroke-width="2" stroke-linecap="round" stroke-linejoin="round" d="M107.6,178.3
			c0,0-1.8,22,0,29.1"/>
	</g>
	<line fill="none" stroke="#000000" stroke-width="4" x1="82.4" y1="116.4" x2="82.4" y2="19.2"/>
	<path d="M113.4,116.3c0,8.3-9.9,15.1-22.1,15.1c-12.2,0-22.1-6.8-22.1-15.1c0-8.4,9.9-15.1,22.1-15.1
		C103.6,101.2,113.4,108,113.4,116.3z"/>
	<path fill-rule="evenodd" clip-rule="evenodd" d="M80,2.6c0.5-0.5,0.6-1.3,0.6-2.2c0.7-0.5,2.6-0.5,3.6-0.2
		c-0.2,1.3,0.1,1.2,0.4,2.2c0.5,0.3,1.4,0.1,1.8,0.4c0.6-0.5,1-1.3,1.4-2C88.9,1.1,90,1.7,91,2.2c0.1,0.9-0.4,1.3-0.4,2.2
		c0.2,0.7,1,0.7,1.4,1.2c0.7-0.3,1.1-0.9,1.8-1.2c1.2,0.4,1.6,1.6,2.6,2.2c-0.3,0.8-0.8,1.4-1.4,2c0.3,0.5,0.7,1,1,1.6
		c0.8-0.1,1.4-0.4,2.4-0.4c0.8,0.9,0.8,2.5,1.4,3.6c-0.5,0.6-1.5,0.8-2,1.4c-0.2,1.6,1.5,1.3,2.6,1.6c0,1.6-0.1,2.1,0,3.5
		c-0.6,0.2-1.4,0.3-2.2,0.4c-0.5,0.3-0.2,1.4-0.6,1.8c0.4,0.8,1.4,0.9,2,1.6c-0.3,1.3-1,2.1-1.4,3.4c-0.7-0.3-1.6-0.2-2.2-0.6
		c-0.5,0.2-0.8,0.7-1,1.2c0.2,0.8,0.7,1.3,1,2c-0.4,1.1-1.4,1.6-2.2,2.4c-0.9-0.2-1.3-0.8-2-1.2c-0.7,0.2-1.2,0.7-1.6,1.2
		c0.1,0.7,0.2,1.5,0.4,2.2c-1.1,0.4-2,1-3.4,1.2c-0.3-0.7-0.9-1.2-1.2-2c-0.5,0-0.6,0.3-1.2,0.2c-0.6,0.4-0.3,1.8-0.8,2.4
		c-1.5,0-2,0.1-3.4,0c-0.2-0.6-0.3-1.4-0.4-2.2c-0.5-0.3-1.3-0.2-2-0.4c-0.5,0.5-0.8,1.3-1.4,1.8c-1.4-0.1-2-0.9-3.2-1.2
		c-0.1-1,0.5-1.4,0.4-2.4c-0.2-0.4-0.8-0.4-1-0.8c-0.6,0.4-1.4,0.6-1.8,1.2c-1-0.7-2.2-1.3-2.8-2.6c0.5-0.5,0.7-1.2,1.2-1.8
		c-0.3-0.7-0.7-1.3-1.2-1.8c-0.9,0-1.5,0.3-2.4,0.4c-0.3-1-0.8-1.7-1-2.8c0.2-0.9,1.4-0.8,1.8-1.6c0.1-0.7-0.3-0.8-0.2-1.6
		c-0.7-0.3-1.6-0.3-2.4-0.6c0-1.1,0-2.1,0-3.2c0.9,0,1.3-0.5,2.2-0.4c0.3-0.5,0.5-1.1,0.4-2c-0.4-0.6-1.3-0.8-1.8-1.4
		c0.2-1.2,0.8-2,1.2-3.2c1,0,1.7,0.2,2.4,0.4c0.5-0.2,0.5-0.9,1-1.2c-0.2-0.9-0.9-1.2-1.2-2c0.5-1,1.3-1.8,2.4-2.4
		c0.4,0.6,1.3,0.6,1.6,1.2c0.7-0.3,1.3-0.7,1.8-1.2C74.5,3.4,74,3,74.1,2c1-0.3,1.9-0.8,3-1.2C78.6,1.7,77.6,3.1,80,2.6z M93.8,15.6
		c-1.7-6.2-8.6-10.9-16.6-7.9c-2.7,2.3-5.5,4.4-5.9,8.7C70.6,23,74.6,27.1,79.4,29c0.2,0.3,0.4-0.5,1,0c0-2,0-3.9,0-5.9
		c-3.9-1-4.1-9.2-0.2-9.7c-0.1,1.9,0.2,3.9,0.2,5.1c1.4,0,2.9,0,4.3,0c0-1.8,0-3.7,0-5.5c4.3,1.4,3.8,8.5,0,10.3c0,1.8,0,3.7,0,5.5
		C91,27.6,93.9,22.6,93.8,15.6z"/>
	<line fill="none" stroke="#000000" stroke-width="4" x1="243.5" y1="116.4" x2="243.5" y2="19.2"/>
	<path d="M212.5,116.3c0,8.3,9.9,15.1,22.1,15.1c12.2,0,22.1-6.8,22.1-15.1c0-8.4-9.9-15.1-22.1-15.1
		C222.4,101.2,212.5,108,212.5,116.3z"/>
	<path fill-rule="evenodd" clip-rule="evenodd" d="M249,0.8c1,0.4,1.9,0.8,3,1.2c0.1,1-0.5,1.4-0.4,2.4c0.5,0.5,1,0.9,1.8,1.2
		c0.3-0.6,1.2-0.6,1.6-1.2c1,0.5,1.8,1.3,2.4,2.4c-0.3,0.8-1,1.1-1.2,2c0.4,0.3,0.5,1,1,1.2c0.7-0.2,1.4-0.4,2.4-0.4
		c0.3,1.1,1,1.9,1.2,3.2c-0.5,0.6-1.4,0.7-1.8,1.4c-0.1,0.9,0.1,1.4,0.4,2c0.9-0.1,1.3,0.4,2.2,0.4c0,1,0,2.1,0,3.2
		c-0.7,0.3-1.7,0.3-2.4,0.6c0.1,0.7-0.3,0.8-0.2,1.6c0.4,0.7,1.5,0.7,1.8,1.6c-0.2,1.1-0.7,1.8-1,2.8c-0.9,0-1.4-0.4-2.4-0.4
		c-0.5,0.5-0.8,1.1-1.2,1.8c0.4,0.5,0.7,1.3,1.2,1.8c-0.5,1.2-1.7,1.8-2.8,2.6c-0.4-0.6-1.1-0.8-1.8-1.2c-0.2,0.4-0.8,0.4-1,0.8
		c-0.1,1,0.5,1.4,0.4,2.4c-1.2,0.3-1.8,1.1-3.2,1.2c-0.5-0.5-0.9-1.2-1.4-1.8c-0.6,0.2-1.5,0.1-2,0.4c-0.1,0.8-0.1,1.6-0.4,2.2
		c-1.3,0.1-1.8,0-3.4,0c-0.4-0.6-0.2-1.9-0.8-2.4c-0.6,0.1-0.7-0.2-1.2-0.2c-0.3,0.7-0.9,1.2-1.2,2c-1.4-0.2-2.2-0.8-3.4-1.2
		c0.2-0.7,0.3-1.4,0.4-2.2c-0.4-0.5-0.9-0.9-1.6-1.2c-0.7,0.4-1.1,1-2,1.2c-0.8-0.7-1.7-1.3-2.2-2.4c0.3-0.7,0.8-1.2,1-2
		c-0.2-0.5-0.5-0.9-1-1.2c-0.6,0.3-1.5,0.3-2.2,0.6c-0.4-1.2-1.1-2.1-1.4-3.4c0.5-0.6,1.6-0.8,2-1.6c-0.4-0.4-0.1-1.5-0.6-1.8
		c-0.8-0.1-1.6-0.2-2.2-0.4c0.1-1.5,0-1.9,0-3.5c1.1-0.3,2.8,0,2.6-1.6c-0.5-0.6-1.5-0.7-2-1.4c0.6-1.1,0.6-2.7,1.4-3.6
		c1,0,1.6,0.3,2.4,0.4c0.3-0.6,0.7-1,1-1.6c-0.6-0.6-1-1.2-1.4-2c1-0.6,1.4-1.8,2.6-2.2c0.7,0.3,1.1,0.9,1.8,1.2
		c0.4-0.4,1.2-0.5,1.4-1.2c0-0.9-0.5-1.3-0.4-2.2c1-0.5,2.1-1.1,3.4-1.4c0.4,0.7,0.8,1.5,1.4,2c0.4-0.3,1.3-0.1,1.8-0.4
		c0.3-1,0.6-0.9,0.4-2.2c1-0.3,2.8-0.3,3.5,0.2c0,0.9,0.1,1.7,0.6,2.2C248.4,3.1,247.3,1.7,249,0.8z M241.3,28.8c0-1.8,0-3.7,0-5.5
		c-3.8-1.7-4.3-8.8,0-10.3c0,1.8,0,3.7,0,5.5c1.4,0,2.9,0,4.3,0c0-1.2,0.3-3.3,0.2-5.1c3.9,0.5,3.7,8.7-0.2,9.7c0,2,0,3.9,0,5.9
		c0.6-0.5,0.8,0.3,1,0c4.8-1.9,8.8-6,8.1-12.6c-0.4-4.3-3.2-6.3-5.9-8.7c-7.9-3-14.8,1.6-16.6,7.9C232,22.6,235,27.6,241.3,28.8z"/>
	<g>
		<path d="M113.5,216c-0.3,0-0.6-0.2-0.8-0.4c-0.2-0.3-0.2-0.6-0.1-0.9l10-31.8c0.1-0.4,0.5-0.7,1-0.7h78.7c0.4,0,0.8,0.3,1,0.7
			l10,31.8c0.1,0.3,0,0.6-0.1,0.9c-0.2,0.3-0.5,0.4-0.8,0.4H113.5z"/>
		<path fill="#00AEEF" d="M202.2,183.2l10,31.8h-98.7l10-31.8H202.2 M202.2,181.2h-78.7c-0.9,0-1.6,0.6-1.9,1.4l-10,31.8
			c-0.2,0.6-0.1,1.3,0.3,1.8c0.4,0.5,1,0.8,1.6,0.8h98.7c0.6,0,1.2-0.3,1.6-0.8c0.4-0.5,0.5-1.2,0.3-1.8l-10-31.8
			C203.8,181.7,203.1,181.2,202.2,181.2L202.2,181.2z"/>
	</g>
	<g>
		<path d="M145.7,188c-12.1,0-25.5-5.4-35.9-14.4c-12-10.5-18.6-24.7-18.6-40V59.1c0-8,6.5-14.5,14.5-14.5h114.4
			c8,0,14.5,6.5,14.5,14.5v74.4c0,15.5-6.5,29.7-18.2,40c-10.2,9-23.8,14.4-36.3,14.4H145.7z"/>
		<path fill="#00AEEF" d="M220.1,45.7c7.4,0,13.5,6,13.5,13.5v74.4c0,33.5-29.7,53.5-53.5,53.5h-34.4c-22.6,0-53.5-20-53.5-53.5
			V59.1c0-7.4,6-13.5,13.5-13.5H220.1 M220.1,43.7H105.7c-8.5,0-15.5,6.9-15.5,15.5v74.4c0,15.7,6.7,30.1,19,40.8
			c10.6,9.2,24.2,14.7,36.5,14.7h34.4c12.7,0,26.5-5.5,37-14.7c11.9-10.5,18.5-25,18.5-40.8V59.1C235.5,50.6,228.6,43.7,220.1,43.7
			L220.1,43.7z"/>
	</g>
	<g>
		<path d="M153.4,129.6c-0.3,0-0.6-0.2-0.8-0.4c-0.2-0.3-0.2-0.6-0.1-0.9l9.5-24.5c0.1-0.4,0.5-0.6,0.9-0.6c0.4,0,0.8,0.3,0.9,0.6
			l9.5,24.5c0.1,0.3,0.1,0.7-0.1,0.9c-0.2,0.3-0.5,0.4-0.8,0.4H153.4z"/>
		<g>
			<path fill="#00AEEF" d="M162.9,104.1l9.5,24.5h-9.5h-9.5L162.9,104.1 M162.9,102.1c-0.8,0-1.6,0.5-1.9,1.3l-9.5,24.5
				c-0.2,0.6-0.2,1.3,0.2,1.9c0.4,0.5,1,0.9,1.7,0.9h9.5h9.5c0.7,0,1.3-0.3,1.7-0.9c0.4-0.5,0.5-1.2,0.2-1.9l-9.5-24.5
				C164.4,102.6,163.7,102.1,162.9,102.1L162.9,102.1z"/>
		</g>
	</g>
	<g>
		<path fill="none" stroke="#000000" d="M133.6,143.5h58.5c0,0,1.6,23.5-29.4,23.5S133.6,143.5,133.6,143.5z"/>
		<g>
			<path d="M162.8,168c-10.9,0-19.1-2.9-24.3-8.5c-6.5-7-5.9-15.7-5.9-16.1c0-0.5,0.5-0.9,1-0.9h58.5c0.5,0,1,0.4,1,0.9
				c0,0.4,0.5,9.1-6,16.1C181.9,165.1,173.7,168,162.8,168L162.8,168z"/>
			<path fill="#00AEEF" d="M192.1,143.5c0,0,1.6,23.5-29.4,23.5s-29.1-23.5-29.1-23.5H192.1 M192.1,141.5h-58.5c-1,0-1.9,0.8-2,1.8
				c0,0.4-0.7,9.5,6.1,16.9c5.4,5.8,13.8,8.8,25,8.8c11.2,0,19.6-3,25.1-8.8c6.8-7.3,6.3-16.5,6.3-16.8
				C194,142.3,193.2,141.5,192.1,141.5L192.1,141.5z"/>
		</g>
		<g>
			<path fill="#00AEEF" d="M190.6,152c1.8-4.6,1.5-8.5,1.5-8.5h-58.5c0,0-0.3,3.9,1.4,8.5H190.6z"/>
		</g>
		<g>
			<g>
				<path fill="#00AEEF" d="M181.5,162.7c-1.4-3.6-4.9-6.2-9.1-6.2c-5.4,0-9.7,4.4-9.7,9.8c0,0.3,0,0.5,0,0.7c0,0,0.1,0,0.1,0
					C174.5,167.3,181.8,162.5,181.5,162.7z"/>
			</g>
		</g>
	</g>
	<polygon fill="#00AEEF" points="162.9,104.1 162.9,128.6 172.4,128.6 	"/>
	<path fill-rule="evenodd" clip-rule="evenodd" fill="#FFFFFF" stroke="#000000" d="M214.6,70.4c-22.4,0-34.8,3.7-42.7,5.5
		c-7.9,1.8-9,1.6-9,1.6s-1.1,0.3-9-1.6c-7.9-1.8-20.4-5.5-42.7-5.5c-11.1,0-20.6,0.2-20.4,2c0.2,1.7,1.2,8.3,1.7,8.6
		c0.5,0.3,3.4,0.4,5.1,7.1c1.7,6.7,3.4,17.3,9.4,21.5c6,4.2,12.7,5,19.9,5c7.3,0,16.4-1.5,22.2-9c5.8-7.5,6.2-12.1,8.2-16
		c2-3.9,2.5-4.9,5.7-4.9c3.1,0,3.7,1,5.7,4.9c2,3.9,2.4,8.5,8.2,16c5.8,7.5,14.9,9,22.2,9c7.3,0,13.9-0.8,19.9-5
		c6-4.2,7.6-14.8,9.4-21.5c1.7-6.7,4.7-6.8,5.1-7.1c0.5-0.3,1.4-6.8,1.7-8.6C235.2,70.6,225.7,70.4,214.6,70.4z M105.1,76.4
		c6.2-4.6,25.9-2.1,35.6,0c3.9,0.8,6.3,2.1,7.9,3.6h-45.8C103.5,78,104.4,76.9,105.1,76.4z M150.7,87.3H102
		c-0.1-1.8-0.1-3.3,0.2-4.7h48.3C151,84.1,151,85.7,150.7,87.3z M103.9,97.4h44.2c-0.6,1.6-1.4,3.2-2.3,4.7h-40.3
		C104.9,100.8,104.4,99.2,103.9,97.4z M103.3,94.7c-0.2-1-0.4-2-0.7-3.1c-0.1-0.5-0.2-1.1-0.3-1.6h47.9c-0.3,1.4-0.6,3-1.1,4.7
		H103.3z M97.1,78.5c-1.9,0-3.4-0.5-3.4-1.1c0-0.6,1.5-1.1,3.4-1.1c1.9,0,3.4,0.5,3.4,1.1C100.5,78,99,78.5,97.1,78.5z M141.4,106.9
		c-6.5,4.6-18.4,4.7-27.1,2c-3.2-1-5.4-2.3-7-4.1h36.4C143.1,105.6,142.3,106.3,141.4,106.9z M220.6,76.4c0.7,0.5,1.6,1.7,2.3,3.6
		h-45.8c1.5-1.5,4-2.7,7.9-3.6C194.8,74.3,214.5,71.8,220.6,76.4z M175.3,82.6h48.3c0.2,1.3,0.3,2.9,0.2,4.7H175
		C174.8,85.7,174.8,84.1,175.3,82.6z M222.5,94.7h-45.8c-0.5-1.7-0.9-3.3-1.1-4.7h47.9c-0.1,0.5-0.2,1-0.3,1.6
		C222.9,92.7,222.7,93.7,222.5,94.7z M177.6,97.4h44.2c-0.5,1.8-1,3.3-1.7,4.7h-40.3C179,100.6,178.2,99.1,177.6,97.4z M211.4,108.9
		c-8.7,2.6-20.6,2.6-27.1-2c-0.9-0.6-1.6-1.3-2.4-2.1h36.4C216.8,106.6,214.6,108,211.4,108.9z M228.6,78.5c-1.9,0-3.4-0.5-3.4-1.1
		c0-0.6,1.5-1.1,3.4-1.1c1.9,0,3.4,0.5,3.4,1.1C232.1,78,230.5,78.5,228.6,78.5z"/>
</g>
</svg>
